<svg width="416" height="171" viewBox="0 0 416 171" fill="none" xmlns="http://www.w3.org/2000/svg">
<rect width="416" height="171" fill="url(#paint0_linear_5_507)"/>
<path d="M117.496 41.4241C117.496 38.7607 118.09 36.3817 119.28 34.2871C120.495 32.1667 122.137 30.5247 124.206 29.361C126.3 28.1715 128.641 27.5768 131.227 27.5768C134.252 27.5768 136.903 28.3525 139.178 29.9041C141.454 31.4556 143.044 33.6019 143.949 36.3429H137.704C137.084 35.05 136.204 34.0803 135.067 33.4338C133.955 32.7873 132.662 32.4641 131.188 32.4641C129.61 32.4641 128.201 32.839 126.96 33.5889C125.744 34.313 124.788 35.3473 124.089 36.692C123.417 38.0366 123.081 39.614 123.081 41.4241C123.081 43.2084 123.417 44.7858 124.089 46.1563C124.788 47.501 125.744 48.5482 126.96 49.2981C128.201 50.0222 129.61 50.3842 131.188 50.3842C132.662 50.3842 133.955 50.061 135.067 49.4145C136.204 48.7422 137.084 47.7595 137.704 46.4666H143.949C143.044 49.2335 141.454 51.3927 139.178 52.9442C136.928 54.4699 134.278 55.2327 131.227 55.2327C128.641 55.2327 126.3 54.6509 124.206 53.4873C122.137 52.2978 120.495 50.6557 119.28 48.5612C118.09 46.4666 117.496 44.0876 117.496 41.4241ZM168.873 33.5114V55H163.404V52.2848C162.706 53.2157 161.788 53.9527 160.65 54.4958C159.538 55.0129 158.323 55.2715 157.004 55.2715C155.323 55.2715 153.837 54.9224 152.544 54.2242C151.251 53.5002 150.229 52.4529 149.479 51.0824C148.755 49.686 148.393 48.0311 148.393 46.1175V33.5114H153.824V45.3417C153.824 47.0484 154.25 48.3672 155.104 49.2981C155.957 50.2032 157.121 50.6557 158.595 50.6557C160.094 50.6557 161.271 50.2032 162.124 49.2981C162.978 48.3672 163.404 47.0484 163.404 45.3417V33.5114H168.873ZM179.662 36.8471C180.36 35.7094 181.265 34.8172 182.377 34.1708C183.515 33.5243 184.808 33.2011 186.256 33.2011V38.9029H184.821C183.114 38.9029 181.821 39.3037 180.942 40.1053C180.088 40.907 179.662 42.3033 179.662 44.2945V55H174.231V33.5114H179.662V36.8471ZM195.344 36.8471C196.042 35.7094 196.947 34.8172 198.059 34.1708C199.197 33.5243 200.49 33.2011 201.938 33.2011V38.9029H200.502C198.796 38.9029 197.503 39.3037 196.624 40.1053C195.77 40.907 195.344 42.3033 195.344 44.2945V55H189.913V33.5114H195.344V36.8471ZM225.571 43.7902C225.571 44.566 225.519 45.2642 225.416 45.8848H209.707C209.836 47.4363 210.379 48.6517 211.336 49.5309C212.293 50.4101 213.469 50.8497 214.866 50.8497C216.883 50.8497 218.318 49.9834 219.171 48.2509H225.028C224.407 50.3196 223.218 52.0262 221.46 53.3709C219.701 54.6897 217.542 55.3491 214.982 55.3491C212.913 55.3491 211.051 54.8966 209.396 53.9915C207.767 53.0606 206.487 51.7547 205.556 50.0739C204.651 48.3931 204.199 46.4537 204.199 44.2557C204.199 42.0318 204.651 40.0795 205.556 38.3987C206.461 36.7179 207.729 35.4249 209.358 34.5199C210.987 33.6148 212.862 33.1623 214.982 33.1623C217.025 33.1623 218.848 33.6019 220.451 34.4811C222.08 35.3603 223.334 36.6144 224.214 38.2435C225.119 39.8468 225.571 41.6957 225.571 43.7902ZM219.947 42.2387C219.921 40.8423 219.417 39.7304 218.434 38.9029C217.451 38.0496 216.249 37.6229 214.827 37.6229C213.482 37.6229 212.344 38.0366 211.413 38.8641C210.508 39.6658 209.952 40.7906 209.746 42.2387H219.947ZM241.443 33.2011C244.003 33.2011 246.071 34.0156 247.649 35.6447C249.226 37.248 250.015 39.4977 250.015 42.3939V55H244.585V43.1308C244.585 41.4241 244.158 40.1183 243.305 39.2132C242.451 38.2823 241.288 37.8168 239.814 37.8168C238.314 37.8168 237.124 38.2823 236.245 39.2132C235.392 40.1183 234.965 41.4241 234.965 43.1308V55H229.535V33.5114H234.965V36.1877C235.689 35.2568 236.607 34.5328 237.719 34.0156C238.857 33.4726 240.098 33.2011 241.443 33.2011ZM253.783 44.2557C253.783 42.0318 254.235 40.0924 255.14 38.4375C256.045 36.7566 257.299 35.4637 258.903 34.5586C260.506 33.6277 262.342 33.1623 264.41 33.1623C267.074 33.1623 269.272 33.8346 271.004 35.1793C272.763 36.4981 273.939 38.3599 274.534 40.7647H268.677C268.367 39.8338 267.837 39.1098 267.087 38.5926C266.363 38.0496 265.458 37.7781 264.372 37.7781C262.82 37.7781 261.592 38.347 260.687 39.4847C259.782 40.5967 259.329 42.187 259.329 44.2557C259.329 46.2985 259.782 47.8888 260.687 49.0266C261.592 50.1386 262.82 50.6945 264.372 50.6945C266.57 50.6945 268.005 49.7119 268.677 47.7466H274.534C273.939 50.0739 272.763 51.9228 271.004 53.2933C269.246 54.6638 267.048 55.3491 264.41 55.3491C262.342 55.3491 260.506 54.8966 258.903 53.9915C257.299 53.0606 256.045 51.7677 255.14 50.1127C254.235 48.4319 253.783 46.4795 253.783 44.2557ZM299.07 33.5114L285.766 65.1625H279.986L284.641 54.457L276.03 33.5114H282.12L287.666 48.5224L293.291 33.5114H299.07Z" fill="url(#paint1_linear_5_507)"/>
<path d="M154.138 67.9849V72.368H146.923V95.059H141.493V72.368H134.278V67.9849H154.138ZM163.53 76.9062C164.228 75.7684 165.133 74.8763 166.245 74.2298C167.383 73.5833 168.676 73.2601 170.124 73.2601V78.9619H168.689C166.982 78.9619 165.689 79.3627 164.81 80.1644C163.957 80.966 163.53 82.3624 163.53 84.3535V95.059H158.1V73.5704H163.53V76.9062ZM172.385 84.2371C172.385 82.065 172.812 80.1385 173.665 78.4577C174.544 76.7769 175.721 75.4839 177.195 74.5789C178.695 73.6738 180.363 73.2213 182.199 73.2213C183.802 73.2213 185.198 73.5445 186.388 74.191C187.603 74.8375 188.573 75.652 189.297 76.6346V73.5704H194.766V95.059H189.297V91.9172C188.599 92.9257 187.629 93.7661 186.388 94.4384C185.172 95.0849 183.763 95.4081 182.16 95.4081C180.35 95.4081 178.695 94.9427 177.195 94.0117C175.721 93.0808 174.544 91.775 173.665 90.0941C172.812 88.3875 172.385 86.4351 172.385 84.2371ZM189.297 84.3147C189.297 82.9959 189.038 81.871 188.521 80.9401C188.004 79.9834 187.306 79.2593 186.427 78.768C185.547 78.2508 184.604 77.9922 183.595 77.9922C182.587 77.9922 181.656 78.2379 180.802 78.7292C179.949 79.2205 179.251 79.9446 178.708 80.9013C178.191 81.8323 177.932 82.9442 177.932 84.2371C177.932 85.5301 178.191 86.6679 178.708 87.6505C179.251 88.6073 179.949 89.3442 180.802 89.8614C181.682 90.3786 182.612 90.6372 183.595 90.6372C184.604 90.6372 185.547 90.3915 186.427 89.9002C187.306 89.383 188.004 88.659 188.521 87.7281C189.038 86.7713 189.297 85.6335 189.297 84.3147ZM198.673 84.3147C198.673 82.0908 199.126 80.1514 200.031 78.4965C200.936 76.8157 202.19 75.5227 203.793 74.6177C205.397 73.6867 207.233 73.2213 209.301 73.2213C211.965 73.2213 214.163 73.8936 215.895 75.2383C217.654 76.5571 218.83 78.4189 219.425 80.8238H213.568C213.258 79.8929 212.728 79.1688 211.978 78.6516C211.254 78.1086 210.349 77.8371 209.263 77.8371C207.711 77.8371 206.483 78.406 205.578 79.5438C204.673 80.6557 204.22 82.246 204.22 84.3147C204.22 86.3575 204.673 87.9479 205.578 89.0856C206.483 90.1976 207.711 90.7535 209.263 90.7535C211.461 90.7535 212.896 89.7709 213.568 87.8056H219.425C218.83 90.1329 217.654 91.9818 215.895 93.3523C214.137 94.7229 211.939 95.4081 209.301 95.4081C207.233 95.4081 205.397 94.9556 203.793 94.0505C202.19 93.1196 200.936 91.8267 200.031 90.1717C199.126 88.4909 198.673 86.5386 198.673 84.3147ZM236.126 95.059L228.834 85.905V95.059H223.403V66.3558H228.834V82.6856L236.048 73.5704H243.108L233.643 84.3535L243.185 95.059H236.126ZM266.031 83.8492C266.031 84.625 265.979 85.3232 265.876 85.9438H250.166C250.296 87.4953 250.839 88.7107 251.796 89.5899C252.752 90.4691 253.929 90.9087 255.325 90.9087C257.342 90.9087 258.777 90.0424 259.631 88.3099H265.488C264.867 90.3786 263.678 92.0853 261.919 93.4299C260.161 94.7487 258.002 95.4081 255.442 95.4081C253.373 95.4081 251.511 94.9556 249.856 94.0505C248.227 93.1196 246.947 91.8137 246.016 90.1329C245.111 88.4521 244.659 86.5127 244.659 84.3147C244.659 82.0908 245.111 80.1385 246.016 78.4577C246.921 76.7769 248.188 75.4839 249.817 74.5789C251.446 73.6738 253.321 73.2213 255.442 73.2213C257.484 73.2213 259.308 73.6609 260.911 74.5401C262.54 75.4193 263.794 76.6734 264.673 78.3025C265.578 79.9058 266.031 81.7547 266.031 83.8492ZM260.407 82.2977C260.381 80.9013 259.876 79.7894 258.894 78.9619C257.911 78.1086 256.709 77.6819 255.286 77.6819C253.942 77.6819 252.804 78.0957 251.873 78.9231C250.968 79.7248 250.412 80.8496 250.205 82.2977H260.407ZM275.425 76.9062C276.123 75.7684 277.028 74.8763 278.14 74.2298C279.278 73.5833 280.571 73.2601 282.019 73.2601V78.9619H280.584C278.877 78.9619 277.584 79.3627 276.705 80.1644C275.851 80.966 275.425 82.3624 275.425 84.3535V95.059H269.994V73.5704H275.425V76.9062Z" fill="url(#paint2_linear_5_507)"/>
<g filter="url(#filter0_d_5_507)">
<path d="M127.41 126.8C127.41 125.976 127.59 125.24 127.95 124.592C128.31 123.936 128.802 123.428 129.426 123.068C130.05 122.7 130.746 122.516 131.514 122.516C132.45 122.516 133.25 122.74 133.914 123.188C134.586 123.628 135.074 124.252 135.378 125.06H134.394C134.154 124.492 133.786 124.048 133.29 123.728C132.802 123.408 132.21 123.248 131.514 123.248C130.898 123.248 130.342 123.392 129.846 123.68C129.358 123.968 128.974 124.384 128.694 124.928C128.414 125.464 128.274 126.088 128.274 126.8C128.274 127.512 128.414 128.136 128.694 128.672C128.974 129.208 129.358 129.62 129.846 129.908C130.342 130.196 130.898 130.34 131.514 130.34C132.21 130.34 132.802 130.184 133.29 129.872C133.786 129.552 134.154 129.112 134.394 128.552H135.378C135.074 129.352 134.586 129.972 133.914 130.412C133.242 130.852 132.442 131.072 131.514 131.072C130.746 131.072 130.05 130.892 129.426 130.532C128.802 130.164 128.31 129.656 127.95 129.008C127.59 128.36 127.41 127.624 127.41 126.8ZM139.92 131.096C139.304 131.096 138.748 130.96 138.252 130.688C137.764 130.408 137.376 130.016 137.088 129.512C136.808 129 136.668 128.404 136.668 127.724C136.668 127.044 136.812 126.452 137.1 125.948C137.388 125.436 137.78 125.044 138.276 124.772C138.772 124.492 139.328 124.352 139.944 124.352C140.56 124.352 141.116 124.492 141.612 124.772C142.116 125.044 142.508 125.436 142.788 125.948C143.076 126.452 143.22 127.044 143.22 127.724C143.22 128.396 143.076 128.988 142.788 129.5C142.5 130.012 142.104 130.408 141.6 130.688C141.096 130.96 140.536 131.096 139.92 131.096ZM139.92 130.364C140.352 130.364 140.752 130.268 141.12 130.076C141.488 129.876 141.784 129.58 142.008 129.188C142.24 128.788 142.356 128.3 142.356 127.724C142.356 127.148 142.244 126.664 142.02 126.272C141.796 125.872 141.5 125.576 141.132 125.384C140.764 125.184 140.364 125.084 139.932 125.084C139.5 125.084 139.1 125.184 138.732 125.384C138.364 125.576 138.068 125.872 137.844 126.272C137.628 126.664 137.52 127.148 137.52 127.724C137.52 128.3 137.628 128.788 137.844 129.188C138.068 129.58 138.36 129.876 138.72 130.076C139.088 130.268 139.488 130.364 139.92 130.364ZM145.843 125.156V129.224C145.843 129.624 145.919 129.9 146.071 130.052C146.223 130.204 146.491 130.28 146.875 130.28H147.643V131H146.743C146.151 131 145.711 130.864 145.423 130.592C145.135 130.312 144.991 129.856 144.991 129.224V125.156H144.079V124.448H144.991V122.804H145.843V124.448H147.643V125.156H145.843ZM148.644 127.712C148.644 127.04 148.776 126.452 149.04 125.948C149.312 125.436 149.684 125.044 150.156 124.772C150.636 124.492 151.176 124.352 151.776 124.352C152.4 124.352 152.936 124.496 153.384 124.784C153.84 125.072 154.168 125.44 154.368 125.888V124.448H155.208V131H154.368V129.548C154.16 129.996 153.828 130.368 153.372 130.664C152.924 130.952 152.388 131.096 151.764 131.096C151.172 131.096 150.636 130.956 150.156 130.676C149.684 130.396 149.312 130 149.04 129.488C148.776 128.976 148.644 128.384 148.644 127.712ZM154.368 127.724C154.368 127.196 154.26 126.732 154.044 126.332C153.828 125.932 153.532 125.624 153.156 125.408C152.788 125.192 152.38 125.084 151.932 125.084C151.468 125.084 151.052 125.188 150.684 125.396C150.316 125.604 150.024 125.908 149.808 126.308C149.6 126.7 149.496 127.168 149.496 127.712C149.496 128.248 149.6 128.72 149.808 129.128C150.024 129.528 150.316 129.836 150.684 130.052C151.052 130.26 151.468 130.364 151.932 130.364C152.38 130.364 152.788 130.256 153.156 130.04C153.532 129.824 153.828 129.516 154.044 129.116C154.26 128.716 154.368 128.252 154.368 127.724ZM156.742 127.724C156.742 127.044 156.878 126.452 157.15 125.948C157.422 125.436 157.798 125.044 158.278 124.772C158.758 124.492 159.306 124.352 159.922 124.352C160.73 124.352 161.394 124.552 161.914 124.952C162.442 125.352 162.782 125.896 162.934 126.584H162.034C161.922 126.112 161.678 125.744 161.302 125.48C160.934 125.208 160.474 125.072 159.922 125.072C159.482 125.072 159.086 125.172 158.734 125.372C158.382 125.572 158.102 125.872 157.894 126.272C157.694 126.664 157.594 127.148 157.594 127.724C157.594 128.3 157.694 128.788 157.894 129.188C158.102 129.588 158.382 129.888 158.734 130.088C159.086 130.288 159.482 130.388 159.922 130.388C160.474 130.388 160.934 130.256 161.302 129.992C161.678 129.72 161.922 129.344 162.034 128.864H162.934C162.782 129.536 162.442 130.076 161.914 130.484C161.386 130.892 160.722 131.096 159.922 131.096C159.306 131.096 158.758 130.96 158.278 130.688C157.798 130.408 157.422 130.016 157.15 129.512C156.878 129 156.742 128.404 156.742 127.724ZM164.101 127.712C164.101 127.04 164.233 126.452 164.497 125.948C164.769 125.436 165.141 125.044 165.613 124.772C166.093 124.492 166.633 124.352 167.233 124.352C167.857 124.352 168.393 124.496 168.841 124.784C169.297 125.072 169.625 125.44 169.825 125.888V124.448H170.665V131H169.825V129.548C169.617 129.996 169.285 130.368 168.829 130.664C168.381 130.952 167.845 131.096 167.221 131.096C166.629 131.096 166.093 130.956 165.613 130.676C165.141 130.396 164.769 130 164.497 129.488C164.233 128.976 164.101 128.384 164.101 127.712ZM169.825 127.724C169.825 127.196 169.717 126.732 169.501 126.332C169.285 125.932 168.989 125.624 168.613 125.408C168.245 125.192 167.837 125.084 167.389 125.084C166.925 125.084 166.509 125.188 166.141 125.396C165.773 125.604 165.481 125.908 165.265 126.308C165.057 126.7 164.953 127.168 164.953 127.712C164.953 128.248 165.057 128.72 165.265 129.128C165.481 129.528 165.773 129.836 166.141 130.052C166.509 130.26 166.925 130.364 167.389 130.364C167.837 130.364 168.245 130.256 168.613 130.04C168.989 129.824 169.285 129.516 169.501 129.116C169.717 128.716 169.825 128.252 169.825 127.724ZM166.009 123.728C166.057 123.368 166.173 123.092 166.357 122.9C166.541 122.708 166.777 122.612 167.065 122.612C167.209 122.612 167.333 122.64 167.437 122.696C167.541 122.744 167.665 122.816 167.809 122.912C167.929 123 168.033 123.068 168.121 123.116C168.209 123.156 168.305 123.176 168.409 123.176C168.545 123.176 168.661 123.132 168.757 123.044C168.853 122.948 168.913 122.812 168.937 122.636H169.441C169.409 122.988 169.293 123.264 169.093 123.464C168.901 123.656 168.661 123.752 168.373 123.752C168.221 123.752 168.089 123.728 167.977 123.68C167.873 123.624 167.749 123.544 167.605 123.44C167.493 123.352 167.393 123.288 167.305 123.248C167.225 123.208 167.133 123.188 167.029 123.188C166.741 123.188 166.573 123.368 166.525 123.728H166.009ZM175.451 131.096C174.835 131.096 174.279 130.96 173.783 130.688C173.295 130.408 172.907 130.016 172.619 129.512C172.339 129 172.199 128.404 172.199 127.724C172.199 127.044 172.343 126.452 172.631 125.948C172.919 125.436 173.311 125.044 173.807 124.772C174.303 124.492 174.859 124.352 175.475 124.352C176.091 124.352 176.647 124.492 177.143 124.772C177.647 125.044 178.039 125.436 178.319 125.948C178.607 126.452 178.751 127.044 178.751 127.724C178.751 128.396 178.607 128.988 178.319 129.5C178.031 130.012 177.635 130.408 177.131 130.688C176.627 130.96 176.067 131.096 175.451 131.096ZM175.451 130.364C175.883 130.364 176.283 130.268 176.651 130.076C177.019 129.876 177.315 129.58 177.539 129.188C177.771 128.788 177.887 128.3 177.887 127.724C177.887 127.148 177.775 126.664 177.551 126.272C177.327 125.872 177.031 125.576 176.663 125.384C176.295 125.184 175.895 125.084 175.463 125.084C175.031 125.084 174.631 125.184 174.263 125.384C173.895 125.576 173.599 125.872 173.375 126.272C173.159 126.664 173.051 127.148 173.051 127.724C173.051 128.3 173.159 128.788 173.375 129.188C173.599 129.58 173.891 129.876 174.251 130.076C174.619 130.268 175.019 130.364 175.451 130.364ZM183.191 127.712C183.191 127.04 183.327 126.452 183.599 125.948C183.871 125.436 184.243 125.044 184.715 124.772C185.195 124.492 185.735 124.352 186.335 124.352C186.911 124.352 187.431 124.492 187.895 124.772C188.359 125.052 188.699 125.416 188.915 125.864V122.12H189.755V131H188.915V129.536C188.715 129.992 188.387 130.368 187.931 130.664C187.475 130.952 186.939 131.096 186.323 131.096C185.723 131.096 185.183 130.956 184.703 130.676C184.231 130.396 183.859 130 183.587 129.488C183.323 128.976 183.191 128.384 183.191 127.712ZM188.915 127.724C188.915 127.196 188.807 126.732 188.591 126.332C188.375 125.932 188.079 125.624 187.703 125.408C187.335 125.192 186.927 125.084 186.479 125.084C186.015 125.084 185.599 125.188 185.231 125.396C184.863 125.604 184.571 125.908 184.355 126.308C184.147 126.7 184.043 127.168 184.043 127.712C184.043 128.248 184.147 128.72 184.355 129.128C184.571 129.528 184.863 129.836 185.231 130.052C185.599 130.26 186.015 130.364 186.479 130.364C186.927 130.364 187.335 130.256 187.703 130.04C188.079 129.824 188.375 129.516 188.591 129.116C188.807 128.716 188.915 128.252 188.915 127.724ZM194.541 131.096C193.925 131.096 193.369 130.96 192.873 130.688C192.385 130.408 191.997 130.016 191.709 129.512C191.429 129 191.289 128.404 191.289 127.724C191.289 127.044 191.433 126.452 191.721 125.948C192.009 125.436 192.401 125.044 192.897 124.772C193.393 124.492 193.949 124.352 194.565 124.352C195.181 124.352 195.737 124.492 196.233 124.772C196.737 125.044 197.129 125.436 197.409 125.948C197.697 126.452 197.841 127.044 197.841 127.724C197.841 128.396 197.697 128.988 197.409 129.5C197.121 130.012 196.725 130.408 196.221 130.688C195.717 130.96 195.157 131.096 194.541 131.096ZM194.541 130.364C194.973 130.364 195.373 130.268 195.741 130.076C196.109 129.876 196.405 129.58 196.629 129.188C196.861 128.788 196.977 128.3 196.977 127.724C196.977 127.148 196.865 126.664 196.641 126.272C196.417 125.872 196.121 125.576 195.753 125.384C195.385 125.184 194.985 125.084 194.553 125.084C194.121 125.084 193.721 125.184 193.353 125.384C192.985 125.576 192.689 125.872 192.465 126.272C192.249 126.664 192.141 127.148 192.141 127.724C192.141 128.3 192.249 128.788 192.465 129.188C192.689 129.58 192.981 129.876 193.341 130.076C193.709 130.268 194.109 130.364 194.541 130.364ZM202.281 127.712C202.281 127.04 202.417 126.452 202.689 125.948C202.961 125.436 203.333 125.044 203.805 124.772C204.285 124.492 204.825 124.352 205.425 124.352C206.001 124.352 206.521 124.492 206.985 124.772C207.449 125.052 207.789 125.416 208.005 125.864V122.12H208.845V131H208.005V129.536C207.805 129.992 207.477 130.368 207.021 130.664C206.565 130.952 206.029 131.096 205.413 131.096C204.813 131.096 204.273 130.956 203.793 130.676C203.321 130.396 202.949 130 202.677 129.488C202.413 128.976 202.281 128.384 202.281 127.712ZM208.005 127.724C208.005 127.196 207.897 126.732 207.681 126.332C207.465 125.932 207.169 125.624 206.793 125.408C206.425 125.192 206.017 125.084 205.569 125.084C205.105 125.084 204.689 125.188 204.321 125.396C203.953 125.604 203.661 125.908 203.445 126.308C203.237 126.7 203.133 127.168 203.133 127.712C203.133 128.248 203.237 128.72 203.445 129.128C203.661 129.528 203.953 129.836 204.321 130.052C204.689 130.26 205.105 130.364 205.569 130.364C206.017 130.364 206.425 130.256 206.793 130.04C207.169 129.824 207.465 129.516 207.681 129.116C207.897 128.716 208.005 128.252 208.005 127.724ZM213.631 131.096C213.015 131.096 212.459 130.96 211.963 130.688C211.475 130.408 211.087 130.016 210.799 129.512C210.519 129 210.379 128.404 210.379 127.724C210.379 127.044 210.523 126.452 210.811 125.948C211.099 125.436 211.491 125.044 211.987 124.772C212.483 124.492 213.039 124.352 213.655 124.352C214.271 124.352 214.827 124.492 215.323 124.772C215.827 125.044 216.219 125.436 216.499 125.948C216.787 126.452 216.931 127.044 216.931 127.724C216.931 128.396 216.787 128.988 216.499 129.5C216.211 130.012 215.815 130.408 215.311 130.688C214.807 130.96 214.247 131.096 213.631 131.096ZM213.631 130.364C214.063 130.364 214.463 130.268 214.831 130.076C215.199 129.876 215.495 129.58 215.719 129.188C215.951 128.788 216.067 128.3 216.067 127.724C216.067 127.148 215.955 126.664 215.731 126.272C215.507 125.872 215.211 125.576 214.843 125.384C214.475 125.184 214.075 125.084 213.643 125.084C213.211 125.084 212.811 125.184 212.443 125.384C212.075 125.576 211.779 125.872 211.555 126.272C211.339 126.664 211.231 127.148 211.231 127.724C211.231 128.3 211.339 128.788 211.555 129.188C211.779 129.58 212.071 129.876 212.431 130.076C212.799 130.268 213.199 130.364 213.631 130.364ZM214.783 122.456L212.323 123.884V123.236L214.783 121.7V122.456ZM219.302 122.12V131H218.462V122.12H219.302ZM220.82 127.712C220.82 127.04 220.952 126.452 221.216 125.948C221.488 125.436 221.86 125.044 222.332 124.772C222.812 124.492 223.352 124.352 223.952 124.352C224.576 124.352 225.112 124.496 225.56 124.784C226.016 125.072 226.344 125.44 226.544 125.888V124.448H227.384V131H226.544V129.548C226.336 129.996 226.004 130.368 225.548 130.664C225.1 130.952 224.564 131.096 223.94 131.096C223.348 131.096 222.812 130.956 222.332 130.676C221.86 130.396 221.488 130 221.216 129.488C220.952 128.976 220.82 128.384 220.82 127.712ZM226.544 127.724C226.544 127.196 226.436 126.732 226.22 126.332C226.004 125.932 225.708 125.624 225.332 125.408C224.964 125.192 224.556 125.084 224.108 125.084C223.644 125.084 223.228 125.188 222.86 125.396C222.492 125.604 222.2 125.908 221.984 126.308C221.776 126.7 221.672 127.168 221.672 127.712C221.672 128.248 221.776 128.72 221.984 129.128C222.2 129.528 222.492 129.836 222.86 130.052C223.228 130.26 223.644 130.364 224.108 130.364C224.556 130.364 224.964 130.256 225.332 130.04C225.708 129.824 226.004 129.516 226.22 129.116C226.436 128.716 226.544 128.252 226.544 127.724ZM230.142 125.612C230.326 125.204 230.606 124.888 230.982 124.664C231.366 124.44 231.834 124.328 232.386 124.328V125.204H232.158C231.55 125.204 231.062 125.368 230.694 125.696C230.326 126.024 230.142 126.572 230.142 127.34V131H229.302V124.448H230.142V125.612ZM242.87 127.388C242.87 127.676 242.862 127.896 242.846 128.048H237.41C237.434 128.544 237.554 128.968 237.77 129.32C237.986 129.672 238.27 129.94 238.622 130.124C238.974 130.3 239.358 130.388 239.774 130.388C240.318 130.388 240.774 130.256 241.142 129.992C241.518 129.728 241.766 129.372 241.886 128.924H242.774C242.614 129.564 242.27 130.088 241.742 130.496C241.222 130.896 240.566 131.096 239.774 131.096C239.158 131.096 238.606 130.96 238.118 130.688C237.63 130.408 237.246 130.016 236.966 129.512C236.694 129 236.558 128.404 236.558 127.724C236.558 127.044 236.694 126.448 236.966 125.936C237.238 125.424 237.618 125.032 238.106 124.76C238.594 124.488 239.15 124.352 239.774 124.352C240.398 124.352 240.942 124.488 241.406 124.76C241.878 125.032 242.238 125.4 242.486 125.864C242.742 126.32 242.87 126.828 242.87 127.388ZM242.018 127.364C242.026 126.876 241.926 126.46 241.718 126.116C241.518 125.772 241.242 125.512 240.89 125.336C240.538 125.16 240.154 125.072 239.738 125.072C239.114 125.072 238.582 125.272 238.142 125.672C237.702 126.072 237.458 126.636 237.41 127.364H242.018ZM250.568 131.096C249.952 131.096 249.396 130.96 248.9 130.688C248.412 130.408 248.024 130.016 247.736 129.512C247.456 129 247.316 128.404 247.316 127.724C247.316 127.044 247.46 126.452 247.748 125.948C248.036 125.436 248.428 125.044 248.924 124.772C249.42 124.492 249.976 124.352 250.592 124.352C251.208 124.352 251.764 124.492 252.26 124.772C252.764 125.044 253.156 125.436 253.436 125.948C253.724 126.452 253.868 127.044 253.868 127.724C253.868 128.396 253.724 128.988 253.436 129.5C253.148 130.012 252.752 130.408 252.248 130.688C251.744 130.96 251.184 131.096 250.568 131.096ZM250.568 130.364C251 130.364 251.4 130.268 251.768 130.076C252.136 129.876 252.432 129.58 252.656 129.188C252.888 128.788 253.004 128.3 253.004 127.724C253.004 127.148 252.892 126.664 252.668 126.272C252.444 125.872 252.148 125.576 251.78 125.384C251.412 125.184 251.012 125.084 250.58 125.084C250.148 125.084 249.748 125.184 249.38 125.384C249.012 125.576 248.716 125.872 248.492 126.272C248.276 126.664 248.168 127.148 248.168 127.724C248.168 128.3 248.276 128.788 248.492 129.188C248.716 129.58 249.008 129.876 249.368 130.076C249.736 130.268 250.136 130.364 250.568 130.364ZM261.075 124.448V131H260.235V129.848C260.043 130.256 259.747 130.568 259.347 130.784C258.947 131 258.499 131.108 258.003 131.108C257.219 131.108 256.579 130.868 256.083 130.388C255.587 129.9 255.339 129.196 255.339 128.276V124.448H256.167V128.18C256.167 128.892 256.343 129.436 256.695 129.812C257.055 130.188 257.543 130.376 258.159 130.376C258.791 130.376 259.295 130.176 259.671 129.776C260.047 129.376 260.235 128.788 260.235 128.012V124.448H261.075ZM264.085 125.156V129.224C264.085 129.624 264.161 129.9 264.313 130.052C264.465 130.204 264.733 130.28 265.117 130.28H265.885V131H264.985C264.393 131 263.953 130.864 263.665 130.592C263.377 130.312 263.233 129.856 263.233 129.224V125.156H262.321V124.448H263.233V122.804H264.085V124.448H265.885V125.156H264.085ZM268.111 125.612C268.295 125.204 268.575 124.888 268.951 124.664C269.335 124.44 269.803 124.328 270.355 124.328V125.204H270.127C269.519 125.204 269.031 125.368 268.663 125.696C268.295 126.024 268.111 126.572 268.111 127.34V131H267.271V124.448H268.111V125.612ZM271.234 127.712C271.234 127.04 271.366 126.452 271.63 125.948C271.902 125.436 272.274 125.044 272.746 124.772C273.226 124.492 273.766 124.352 274.366 124.352C274.99 124.352 275.526 124.496 275.974 124.784C276.43 125.072 276.758 125.44 276.958 125.888V124.448H277.798V131H276.958V129.548C276.75 129.996 276.418 130.368 275.962 130.664C275.514 130.952 274.978 131.096 274.354 131.096C273.762 131.096 273.226 130.956 272.746 130.676C272.274 130.396 271.902 130 271.63 129.488C271.366 128.976 271.234 128.384 271.234 127.712ZM276.958 127.724C276.958 127.196 276.85 126.732 276.634 126.332C276.418 125.932 276.122 125.624 275.746 125.408C275.378 125.192 274.97 125.084 274.522 125.084C274.058 125.084 273.642 125.188 273.274 125.396C272.906 125.604 272.614 125.908 272.398 126.308C272.19 126.7 272.086 127.168 272.086 127.712C272.086 128.248 272.19 128.72 272.398 129.128C272.614 129.528 272.906 129.836 273.274 130.052C273.642 130.26 274.058 130.364 274.522 130.364C274.97 130.364 275.378 130.256 275.746 130.04C276.122 129.824 276.418 129.516 276.634 129.116C276.85 128.716 276.958 128.252 276.958 127.724ZM281.972 131.096C281.22 131.096 280.604 130.924 280.124 130.58C279.652 130.228 279.388 129.752 279.332 129.152H280.196C280.236 129.52 280.408 129.82 280.712 130.052C281.024 130.276 281.44 130.388 281.96 130.388C282.416 130.388 282.772 130.28 283.028 130.064C283.292 129.848 283.424 129.58 283.424 129.26C283.424 129.036 283.352 128.852 283.208 128.708C283.064 128.564 282.88 128.452 282.656 128.372C282.44 128.284 282.144 128.192 281.768 128.096C281.28 127.968 280.884 127.84 280.58 127.712C280.276 127.584 280.016 127.396 279.8 127.148C279.592 126.892 279.488 126.552 279.488 126.128C279.488 125.808 279.584 125.512 279.776 125.24C279.968 124.968 280.24 124.752 280.592 124.592C280.944 124.432 281.344 124.352 281.792 124.352C282.496 124.352 283.064 124.532 283.496 124.892C283.928 125.244 284.16 125.732 284.192 126.356H283.352C283.328 125.972 283.176 125.664 282.896 125.432C282.624 125.192 282.248 125.072 281.768 125.072C281.344 125.072 281 125.172 280.736 125.372C280.472 125.572 280.34 125.82 280.34 126.116C280.34 126.372 280.416 126.584 280.568 126.752C280.728 126.912 280.924 127.04 281.156 127.136C281.388 127.224 281.7 127.324 282.092 127.436C282.564 127.564 282.94 127.688 283.22 127.808C283.5 127.928 283.74 128.104 283.94 128.336C284.14 128.568 284.244 128.876 284.252 129.26C284.252 129.612 284.156 129.928 283.964 130.208C283.772 130.48 283.504 130.696 283.16 130.856C282.816 131.016 282.42 131.096 281.972 131.096ZM146.416 147.328C147.184 147.328 147.808 147.572 148.288 148.06C148.776 148.54 149.02 149.24 149.02 150.16V154H148.192V150.256C148.192 149.544 148.02 149 147.676 148.624C147.332 148.248 146.864 148.06 146.272 148.06C145.656 148.06 145.164 148.264 144.796 148.672C144.428 149.08 144.244 149.672 144.244 150.448V154H143.416V150.256C143.416 149.544 143.244 149 142.9 148.624C142.556 148.248 142.084 148.06 141.484 148.06C140.868 148.06 140.376 148.264 140.008 148.672C139.64 149.08 139.456 149.672 139.456 150.448V154H138.616V147.448H139.456V148.576C139.664 148.168 139.96 147.86 140.344 147.652C140.728 147.436 141.156 147.328 141.628 147.328C142.196 147.328 142.692 147.464 143.116 147.736C143.548 148.008 143.86 148.408 144.052 148.936C144.228 148.416 144.528 148.02 144.952 147.748C145.384 147.468 145.872 147.328 146.416 147.328ZM153.754 154.096C153.138 154.096 152.582 153.96 152.086 153.688C151.598 153.408 151.21 153.016 150.922 152.512C150.642 152 150.502 151.404 150.502 150.724C150.502 150.044 150.646 149.452 150.934 148.948C151.222 148.436 151.614 148.044 152.11 147.772C152.606 147.492 153.162 147.352 153.778 147.352C154.394 147.352 154.95 147.492 155.446 147.772C155.95 148.044 156.342 148.436 156.622 148.948C156.91 149.452 157.054 150.044 157.054 150.724C157.054 151.396 156.91 151.988 156.622 152.5C156.334 153.012 155.938 153.408 155.434 153.688C154.93 153.96 154.37 154.096 153.754 154.096ZM153.754 153.364C154.186 153.364 154.586 153.268 154.954 153.076C155.322 152.876 155.618 152.58 155.842 152.188C156.074 151.788 156.19 151.3 156.19 150.724C156.19 150.148 156.078 149.664 155.854 149.272C155.63 148.872 155.334 148.576 154.966 148.384C154.598 148.184 154.198 148.084 153.766 148.084C153.334 148.084 152.934 148.184 152.566 148.384C152.198 148.576 151.902 148.872 151.678 149.272C151.462 149.664 151.354 150.148 151.354 150.724C151.354 151.3 151.462 151.788 151.678 152.188C151.902 152.58 152.194 152.876 152.554 153.076C152.922 153.268 153.322 153.364 153.754 153.364ZM164.513 150.388C164.513 150.676 164.505 150.896 164.489 151.048H159.053C159.077 151.544 159.197 151.968 159.413 152.32C159.629 152.672 159.913 152.94 160.265 153.124C160.617 153.3 161.001 153.388 161.417 153.388C161.961 153.388 162.417 153.256 162.785 152.992C163.161 152.728 163.409 152.372 163.529 151.924H164.417C164.257 152.564 163.913 153.088 163.385 153.496C162.865 153.896 162.209 154.096 161.417 154.096C160.801 154.096 160.249 153.96 159.761 153.688C159.273 153.408 158.889 153.016 158.609 152.512C158.337 152 158.201 151.404 158.201 150.724C158.201 150.044 158.337 149.448 158.609 148.936C158.881 148.424 159.261 148.032 159.749 147.76C160.237 147.488 160.793 147.352 161.417 147.352C162.041 147.352 162.585 147.488 163.049 147.76C163.521 148.032 163.881 148.4 164.129 148.864C164.385 149.32 164.513 149.828 164.513 150.388ZM163.661 150.364C163.669 149.876 163.569 149.46 163.361 149.116C163.161 148.772 162.885 148.512 162.533 148.336C162.181 148.16 161.797 148.072 161.381 148.072C160.757 148.072 160.225 148.272 159.785 148.672C159.345 149.072 159.101 149.636 159.053 150.364H163.661ZM165.666 150.712C165.666 150.04 165.802 149.452 166.074 148.948C166.346 148.436 166.718 148.044 167.19 147.772C167.67 147.492 168.21 147.352 168.81 147.352C169.386 147.352 169.906 147.492 170.37 147.772C170.834 148.052 171.174 148.416 171.39 148.864V145.12H172.23V154H171.39V152.536C171.19 152.992 170.862 153.368 170.406 153.664C169.95 153.952 169.414 154.096 168.798 154.096C168.198 154.096 167.658 153.956 167.178 153.676C166.706 153.396 166.334 153 166.062 152.488C165.798 151.976 165.666 151.384 165.666 150.712ZM171.39 150.724C171.39 150.196 171.282 149.732 171.066 149.332C170.85 148.932 170.554 148.624 170.178 148.408C169.81 148.192 169.402 148.084 168.954 148.084C168.49 148.084 168.074 148.188 167.706 148.396C167.338 148.604 167.046 148.908 166.83 149.308C166.622 149.7 166.518 150.168 166.518 150.712C166.518 151.248 166.622 151.72 166.83 152.128C167.046 152.528 167.338 152.836 167.706 153.052C168.074 153.26 168.49 153.364 168.954 153.364C169.402 153.364 169.81 153.256 170.178 153.04C170.554 152.824 170.85 152.516 171.066 152.116C171.282 151.716 171.39 151.252 171.39 150.724ZM173.764 150.712C173.764 150.04 173.896 149.452 174.16 148.948C174.432 148.436 174.804 148.044 175.276 147.772C175.756 147.492 176.296 147.352 176.896 147.352C177.52 147.352 178.056 147.496 178.504 147.784C178.96 148.072 179.288 148.44 179.488 148.888V147.448H180.328V154H179.488V152.548C179.28 152.996 178.948 153.368 178.492 153.664C178.044 153.952 177.508 154.096 176.884 154.096C176.292 154.096 175.756 153.956 175.276 153.676C174.804 153.396 174.432 153 174.16 152.488C173.896 151.976 173.764 151.384 173.764 150.712ZM179.488 150.724C179.488 150.196 179.38 149.732 179.164 149.332C178.948 148.932 178.652 148.624 178.276 148.408C177.908 148.192 177.5 148.084 177.052 148.084C176.588 148.084 176.172 148.188 175.804 148.396C175.436 148.604 175.144 148.908 174.928 149.308C174.72 149.7 174.616 150.168 174.616 150.712C174.616 151.248 174.72 151.72 174.928 152.128C175.144 152.528 175.436 152.836 175.804 153.052C176.172 153.26 176.588 153.364 177.052 153.364C177.5 153.364 177.908 153.256 178.276 153.04C178.652 152.824 178.948 152.516 179.164 152.116C179.38 151.716 179.488 151.252 179.488 150.724ZM184.501 154.096C183.749 154.096 183.133 153.924 182.653 153.58C182.181 153.228 181.917 152.752 181.861 152.152H182.725C182.765 152.52 182.937 152.82 183.241 153.052C183.553 153.276 183.969 153.388 184.489 153.388C184.945 153.388 185.301 153.28 185.557 153.064C185.821 152.848 185.953 152.58 185.953 152.26C185.953 152.036 185.881 151.852 185.737 151.708C185.593 151.564 185.409 151.452 185.185 151.372C184.969 151.284 184.673 151.192 184.297 151.096C183.809 150.968 183.413 150.84 183.109 150.712C182.805 150.584 182.545 150.396 182.329 150.148C182.121 149.892 182.017 149.552 182.017 149.128C182.017 148.808 182.113 148.512 182.305 148.24C182.497 147.968 182.769 147.752 183.121 147.592C183.473 147.432 183.873 147.352 184.321 147.352C185.025 147.352 185.593 147.532 186.025 147.892C186.457 148.244 186.689 148.732 186.721 149.356H185.881C185.857 148.972 185.705 148.664 185.425 148.432C185.153 148.192 184.777 148.072 184.297 148.072C183.873 148.072 183.529 148.172 183.265 148.372C183.001 148.572 182.869 148.82 182.869 149.116C182.869 149.372 182.945 149.584 183.097 149.752C183.257 149.912 183.453 150.04 183.685 150.136C183.917 150.224 184.229 150.324 184.621 150.436C185.093 150.564 185.469 150.688 185.749 150.808C186.029 150.928 186.269 151.104 186.469 151.336C186.669 151.568 186.773 151.876 186.781 152.26C186.781 152.612 186.685 152.928 186.493 153.208C186.301 153.48 186.033 153.696 185.689 153.856C185.345 154.016 184.949 154.096 184.501 154.096ZM192.075 146.212C191.907 146.212 191.763 146.152 191.643 146.032C191.523 145.912 191.463 145.764 191.463 145.588C191.463 145.412 191.523 145.268 191.643 145.156C191.763 145.036 191.907 144.976 192.075 144.976C192.243 144.976 192.387 145.036 192.507 145.156C192.627 145.268 192.687 145.412 192.687 145.588C192.687 145.764 192.627 145.912 192.507 146.032C192.387 146.152 192.243 146.212 192.075 146.212ZM192.495 147.448V154H191.655V147.448H192.495ZM197.47 147.328C198.254 147.328 198.894 147.572 199.39 148.06C199.886 148.54 200.134 149.24 200.134 150.16V154H199.306V150.256C199.306 149.544 199.126 149 198.766 148.624C198.414 148.248 197.93 148.06 197.314 148.06C196.682 148.06 196.178 148.26 195.802 148.66C195.426 149.06 195.238 149.648 195.238 150.424V154H194.398V147.448H195.238V148.564C195.446 148.164 195.746 147.86 196.138 147.652C196.53 147.436 196.974 147.328 197.47 147.328ZM203.083 148.156V152.224C203.083 152.624 203.159 152.9 203.311 153.052C203.463 153.204 203.731 153.28 204.115 153.28H204.883V154H203.983C203.391 154 202.951 153.864 202.663 153.592C202.375 153.312 202.231 152.856 202.231 152.224V148.156H201.319V147.448H202.231V145.804H203.083V147.448H204.883V148.156H203.083ZM212.197 150.388C212.197 150.676 212.189 150.896 212.173 151.048H206.737C206.761 151.544 206.881 151.968 207.097 152.32C207.313 152.672 207.597 152.94 207.949 153.124C208.301 153.3 208.685 153.388 209.101 153.388C209.645 153.388 210.101 153.256 210.469 152.992C210.845 152.728 211.093 152.372 211.213 151.924H212.101C211.941 152.564 211.597 153.088 211.069 153.496C210.549 153.896 209.893 154.096 209.101 154.096C208.485 154.096 207.933 153.96 207.445 153.688C206.957 153.408 206.573 153.016 206.293 152.512C206.021 152 205.885 151.404 205.885 150.724C205.885 150.044 206.021 149.448 206.293 148.936C206.565 148.424 206.945 148.032 207.433 147.76C207.921 147.488 208.477 147.352 209.101 147.352C209.725 147.352 210.269 147.488 210.733 147.76C211.205 148.032 211.565 148.4 211.813 148.864C212.069 149.32 212.197 149.828 212.197 150.388ZM211.345 150.364C211.353 149.876 211.253 149.46 211.045 149.116C210.845 148.772 210.569 148.512 210.217 148.336C209.865 148.16 209.481 148.072 209.065 148.072C208.441 148.072 207.909 148.272 207.469 148.672C207.029 149.072 206.785 149.636 206.737 150.364H211.345ZM214.573 148.612C214.757 148.204 215.037 147.888 215.413 147.664C215.797 147.44 216.265 147.328 216.817 147.328V148.204H216.589C215.981 148.204 215.493 148.368 215.125 148.696C214.757 149.024 214.573 149.572 214.573 150.34V154H213.733V147.448H214.573V148.612ZM221.153 147.328C221.937 147.328 222.577 147.572 223.073 148.06C223.569 148.54 223.817 149.24 223.817 150.16V154H222.989V150.256C222.989 149.544 222.809 149 222.449 148.624C222.097 148.248 221.613 148.06 220.997 148.06C220.365 148.06 219.861 148.26 219.485 148.66C219.109 149.06 218.921 149.648 218.921 150.424V154H218.081V147.448H218.921V148.564C219.129 148.164 219.429 147.86 219.821 147.652C220.213 147.436 220.657 147.328 221.153 147.328ZM225.291 150.712C225.291 150.04 225.423 149.452 225.687 148.948C225.959 148.436 226.331 148.044 226.803 147.772C227.283 147.492 227.823 147.352 228.423 147.352C229.047 147.352 229.583 147.496 230.031 147.784C230.487 148.072 230.815 148.44 231.015 148.888V147.448H231.855V154H231.015V152.548C230.807 152.996 230.475 153.368 230.019 153.664C229.571 153.952 229.035 154.096 228.411 154.096C227.819 154.096 227.283 153.956 226.803 153.676C226.331 153.396 225.959 153 225.687 152.488C225.423 151.976 225.291 151.384 225.291 150.712ZM231.015 150.724C231.015 150.196 230.907 149.732 230.691 149.332C230.475 148.932 230.179 148.624 229.803 148.408C229.435 148.192 229.027 148.084 228.579 148.084C228.115 148.084 227.699 148.188 227.331 148.396C226.963 148.604 226.671 148.908 226.455 149.308C226.247 149.7 226.143 150.168 226.143 150.712C226.143 151.248 226.247 151.72 226.455 152.128C226.671 152.528 226.963 152.836 227.331 153.052C227.699 153.26 228.115 153.364 228.579 153.364C229.027 153.364 229.435 153.256 229.803 153.04C230.179 152.824 230.475 152.516 230.691 152.116C230.907 151.716 231.015 151.252 231.015 150.724ZM233.389 150.724C233.389 150.044 233.525 149.452 233.797 148.948C234.069 148.436 234.445 148.044 234.925 147.772C235.405 147.492 235.953 147.352 236.569 147.352C237.377 147.352 238.041 147.552 238.561 147.952C239.089 148.352 239.429 148.896 239.581 149.584H238.681C238.569 149.112 238.325 148.744 237.949 148.48C237.581 148.208 237.121 148.072 236.569 148.072C236.129 148.072 235.733 148.172 235.381 148.372C235.029 148.572 234.749 148.872 234.541 149.272C234.341 149.664 234.241 150.148 234.241 150.724C234.241 151.3 234.341 151.788 234.541 152.188C234.749 152.588 235.029 152.888 235.381 153.088C235.733 153.288 236.129 153.388 236.569 153.388C237.121 153.388 237.581 153.256 237.949 152.992C238.325 152.72 238.569 152.344 238.681 151.864H239.581C239.429 152.536 239.089 153.076 238.561 153.484C238.033 153.892 237.369 154.096 236.569 154.096C235.953 154.096 235.405 153.96 234.925 153.688C234.445 153.408 234.069 153.016 233.797 152.512C233.525 152 233.389 151.404 233.389 150.724ZM241.552 146.212C241.384 146.212 241.24 146.152 241.12 146.032C241 145.912 240.94 145.764 240.94 145.588C240.94 145.412 241 145.268 241.12 145.156C241.24 145.036 241.384 144.976 241.552 144.976C241.72 144.976 241.864 145.036 241.984 145.156C242.104 145.268 242.164 145.412 242.164 145.588C242.164 145.764 242.104 145.912 241.984 146.032C241.864 146.152 241.72 146.212 241.552 146.212ZM241.972 147.448V154H241.132V147.448H241.972ZM246.742 154.096C246.126 154.096 245.57 153.96 245.074 153.688C244.586 153.408 244.198 153.016 243.91 152.512C243.63 152 243.49 151.404 243.49 150.724C243.49 150.044 243.634 149.452 243.922 148.948C244.21 148.436 244.602 148.044 245.098 147.772C245.594 147.492 246.15 147.352 246.766 147.352C247.382 147.352 247.938 147.492 248.434 147.772C248.938 148.044 249.33 148.436 249.61 148.948C249.898 149.452 250.042 150.044 250.042 150.724C250.042 151.396 249.898 151.988 249.61 152.5C249.322 153.012 248.926 153.408 248.422 153.688C247.918 153.96 247.358 154.096 246.742 154.096ZM246.742 153.364C247.174 153.364 247.574 153.268 247.942 153.076C248.31 152.876 248.606 152.58 248.83 152.188C249.062 151.788 249.178 151.3 249.178 150.724C249.178 150.148 249.066 149.664 248.842 149.272C248.618 148.872 248.322 148.576 247.954 148.384C247.586 148.184 247.186 148.084 246.754 148.084C246.322 148.084 245.922 148.184 245.554 148.384C245.186 148.576 244.89 148.872 244.666 149.272C244.45 149.664 244.342 150.148 244.342 150.724C244.342 151.3 244.45 151.788 244.666 152.188C244.89 152.58 245.182 152.876 245.542 153.076C245.91 153.268 246.31 153.364 246.742 153.364ZM254.645 147.328C255.429 147.328 256.069 147.572 256.565 148.06C257.061 148.54 257.309 149.24 257.309 150.16V154H256.481V150.256C256.481 149.544 256.301 149 255.941 148.624C255.589 148.248 255.105 148.06 254.489 148.06C253.857 148.06 253.353 148.26 252.977 148.66C252.601 149.06 252.413 149.648 252.413 150.424V154H251.573V147.448H252.413V148.564C252.621 148.164 252.921 147.86 253.313 147.652C253.705 147.436 254.149 147.328 254.645 147.328ZM258.783 150.712C258.783 150.04 258.915 149.452 259.179 148.948C259.451 148.436 259.823 148.044 260.295 147.772C260.775 147.492 261.315 147.352 261.915 147.352C262.539 147.352 263.075 147.496 263.523 147.784C263.979 148.072 264.307 148.44 264.507 148.888V147.448H265.347V154H264.507V152.548C264.299 152.996 263.967 153.368 263.511 153.664C263.063 153.952 262.527 154.096 261.903 154.096C261.311 154.096 260.775 153.956 260.295 153.676C259.823 153.396 259.451 153 259.179 152.488C258.915 151.976 258.783 151.384 258.783 150.712ZM264.507 150.724C264.507 150.196 264.399 149.732 264.183 149.332C263.967 148.932 263.671 148.624 263.295 148.408C262.927 148.192 262.519 148.084 262.071 148.084C261.607 148.084 261.191 148.188 260.823 148.396C260.455 148.604 260.163 148.908 259.947 149.308C259.739 149.7 259.635 150.168 259.635 150.712C259.635 151.248 259.739 151.72 259.947 152.128C260.163 152.528 260.455 152.836 260.823 153.052C261.191 153.26 261.607 153.364 262.071 153.364C262.519 153.364 262.927 153.256 263.295 153.04C263.671 152.824 263.967 152.516 264.183 152.116C264.399 151.716 264.507 151.252 264.507 150.724ZM267.685 146.212C267.517 146.212 267.373 146.152 267.253 146.032C267.133 145.912 267.073 145.764 267.073 145.588C267.073 145.412 267.133 145.268 267.253 145.156C267.373 145.036 267.517 144.976 267.685 144.976C267.853 144.976 267.997 145.036 268.117 145.156C268.237 145.268 268.297 145.412 268.297 145.588C268.297 145.764 268.237 145.912 268.117 146.032C267.997 146.152 267.853 146.212 267.685 146.212ZM268.105 147.448V154H267.265V147.448H268.105ZM272.263 154.096C271.511 154.096 270.895 153.924 270.415 153.58C269.943 153.228 269.679 152.752 269.623 152.152H270.487C270.527 152.52 270.699 152.82 271.003 153.052C271.315 153.276 271.731 153.388 272.251 153.388C272.707 153.388 273.063 153.28 273.319 153.064C273.583 152.848 273.715 152.58 273.715 152.26C273.715 152.036 273.643 151.852 273.499 151.708C273.355 151.564 273.171 151.452 272.947 151.372C272.731 151.284 272.435 151.192 272.059 151.096C271.571 150.968 271.175 150.84 270.871 150.712C270.567 150.584 270.307 150.396 270.091 150.148C269.883 149.892 269.779 149.552 269.779 149.128C269.779 148.808 269.875 148.512 270.067 148.24C270.259 147.968 270.531 147.752 270.883 147.592C271.235 147.432 271.635 147.352 272.083 147.352C272.787 147.352 273.355 147.532 273.787 147.892C274.219 148.244 274.451 148.732 274.483 149.356H273.643C273.619 148.972 273.467 148.664 273.187 148.432C272.915 148.192 272.539 148.072 272.059 148.072C271.635 148.072 271.291 148.172 271.027 148.372C270.763 148.572 270.631 148.82 270.631 149.116C270.631 149.372 270.707 149.584 270.859 149.752C271.019 149.912 271.215 150.04 271.447 150.136C271.679 150.224 271.991 150.324 272.383 150.436C272.855 150.564 273.231 150.688 273.511 150.808C273.791 150.928 274.031 151.104 274.231 151.336C274.431 151.568 274.535 151.876 274.543 152.26C274.543 152.612 274.447 152.928 274.255 153.208C274.063 153.48 273.795 153.696 273.451 153.856C273.107 154.016 272.711 154.096 272.263 154.096ZM276.268 154.06C276.092 154.06 275.944 154 275.824 153.88C275.712 153.76 275.656 153.612 275.656 153.436C275.656 153.26 275.712 153.116 275.824 153.004C275.944 152.884 276.092 152.824 276.268 152.824C276.436 152.824 276.576 152.884 276.688 153.004C276.808 153.116 276.868 153.26 276.868 153.436C276.868 153.612 276.808 153.76 276.688 153.88C276.576 154 276.436 154.06 276.268 154.06Z" fill="#D9D9D9"/>
</g>
<defs>
<filter id="filter0_d_5_507" x="124.356" y="121.7" width="162.951" height="38.5049" filterUnits="userSpaceOnUse" color-interpolation-filters="sRGB">
<feFlood flood-opacity="0" result="BackgroundImageFix"/>
<feColorMatrix in="SourceAlpha" type="matrix" values="0 0 0 0 0 0 0 0 0 0 0 0 0 0 0 0 0 0 127 0" result="hardAlpha"/>
<feOffset dy="3.05447"/>
<feGaussianBlur stdDeviation="1.52724"/>
<feComposite in2="hardAlpha" operator="out"/>
<feColorMatrix type="matrix" values="0 0 0 0 0 0 0 0 0 0 0 0 0 0 0 0 0 0 0.5 0"/>
<feBlend mode="normal" in2="BackgroundImageFix" result="effect1_dropShadow_5_507"/>
<feBlend mode="normal" in="SourceGraphic" in2="effect1_dropShadow_5_507" result="shape"/>
</filter>
<linearGradient id="paint0_linear_5_507" x1="367.9" y1="21.2952" x2="90.9728" y2="228.148" gradientUnits="userSpaceOnUse">
<stop stop-color="#121212"/>
<stop offset="0.0001" stop-color="#121212"/>
<stop offset="1" stop-color="#247940" stop-opacity="0"/>
<stop offset="1" stop-color="#247940" stop-opacity="0.2"/>
</linearGradient>
<linearGradient id="paint1_linear_5_507" x1="116" y1="42.3838" x2="299.321" y2="44.4207" gradientUnits="userSpaceOnUse">
<stop stop-color="#00CE2C"/>
<stop offset="0.492615" stop-color="#AEDF23"/>
<stop offset="1" stop-color="#A3DC00"/>
</linearGradient>
<linearGradient id="paint2_linear_5_507" x1="133" y1="85.9871" x2="283.009" y2="87.2085" gradientUnits="userSpaceOnUse">
<stop stop-color="#00CE2C"/>
<stop offset="0.492615" stop-color="#AEDF23"/>
<stop offset="1" stop-color="#A3DC00"/>
</linearGradient>
</defs>
</svg>
