<svg width="1440" height="405" viewBox="0 0 1440 405" fill="none" xmlns="http://www.w3.org/2000/svg">
<rect width="1440" height="405" fill="url(#paint0_linear_0_105)"/>
<g filter="url(#filter0_d_0_105)">
<path d="M422.646 277.579C422.646 275.862 423.021 274.329 423.771 272.979C424.521 271.612 425.546 270.554 426.846 269.804C428.146 269.037 429.596 268.654 431.196 268.654C433.146 268.654 434.812 269.121 436.196 270.054C437.596 270.971 438.612 272.271 439.246 273.954H437.196C436.696 272.771 435.929 271.846 434.896 271.179C433.879 270.512 432.646 270.179 431.196 270.179C429.912 270.179 428.754 270.479 427.721 271.079C426.704 271.679 425.904 272.546 425.321 273.679C424.737 274.796 424.446 276.096 424.446 277.579C424.446 279.062 424.737 280.362 425.321 281.479C425.904 282.596 426.704 283.454 427.721 284.054C428.754 284.654 429.912 284.954 431.196 284.954C432.646 284.954 433.879 284.629 434.896 283.979C435.929 283.312 436.696 282.396 437.196 281.229H439.246C438.612 282.896 437.596 284.187 436.196 285.104C434.796 286.021 433.129 286.479 431.196 286.479C429.596 286.479 428.146 286.104 426.846 285.354C425.546 284.587 424.521 283.529 423.771 282.179C423.021 280.829 422.646 279.296 422.646 277.579ZM448.708 286.529C447.425 286.529 446.266 286.246 445.233 285.679C444.216 285.096 443.408 284.279 442.808 283.229C442.225 282.162 441.933 280.921 441.933 279.504C441.933 278.087 442.233 276.854 442.833 275.804C443.433 274.737 444.25 273.921 445.283 273.354C446.316 272.771 447.475 272.479 448.758 272.479C450.041 272.479 451.2 272.771 452.233 273.354C453.283 273.921 454.1 274.737 454.683 275.804C455.283 276.854 455.583 278.087 455.583 279.504C455.583 280.904 455.283 282.137 454.683 283.204C454.083 284.271 453.258 285.096 452.208 285.679C451.158 286.246 449.991 286.529 448.708 286.529ZM448.708 285.004C449.608 285.004 450.441 284.804 451.208 284.404C451.975 283.987 452.591 283.371 453.058 282.554C453.541 281.721 453.783 280.704 453.783 279.504C453.783 278.304 453.55 277.296 453.083 276.479C452.616 275.646 452 275.029 451.233 274.629C450.466 274.212 449.633 274.004 448.733 274.004C447.833 274.004 447 274.212 446.233 274.629C445.466 275.029 444.85 275.646 444.383 276.479C443.933 277.296 443.708 278.304 443.708 279.504C443.708 280.704 443.933 281.721 444.383 282.554C444.85 283.371 445.458 283.987 446.208 284.404C446.975 284.804 447.808 285.004 448.708 285.004ZM461.048 274.154V282.629C461.048 283.462 461.206 284.037 461.523 284.354C461.84 284.671 462.398 284.829 463.198 284.829H464.798V286.329H462.923C461.69 286.329 460.773 286.046 460.173 285.479C459.573 284.896 459.273 283.946 459.273 282.629V274.154H457.373V272.679H459.273V269.254H461.048V272.679H464.798V274.154H461.048ZM466.884 279.479C466.884 278.079 467.159 276.854 467.709 275.804C468.276 274.737 469.051 273.921 470.034 273.354C471.034 272.771 472.159 272.479 473.409 272.479C474.709 272.479 475.826 272.779 476.759 273.379C477.709 273.979 478.392 274.746 478.809 275.679V272.679H480.559V286.329H478.809V283.304C478.376 284.237 477.684 285.012 476.734 285.629C475.801 286.229 474.684 286.529 473.384 286.529C472.151 286.529 471.034 286.237 470.034 285.654C469.051 285.071 468.276 284.246 467.709 283.179C467.159 282.112 466.884 280.879 466.884 279.479ZM478.809 279.504C478.809 278.404 478.584 277.437 478.134 276.604C477.684 275.771 477.067 275.129 476.284 274.679C475.517 274.229 474.667 274.004 473.734 274.004C472.767 274.004 471.901 274.221 471.134 274.654C470.367 275.087 469.759 275.721 469.309 276.554C468.876 277.371 468.659 278.346 468.659 279.479C468.659 280.596 468.876 281.579 469.309 282.429C469.759 283.262 470.367 283.904 471.134 284.354C471.901 284.787 472.767 285.004 473.734 285.004C474.667 285.004 475.517 284.779 476.284 284.329C477.067 283.879 477.684 283.237 478.134 282.404C478.584 281.571 478.809 280.604 478.809 279.504ZM483.754 279.504C483.754 278.087 484.038 276.854 484.604 275.804C485.171 274.737 485.954 273.921 486.954 273.354C487.954 272.771 489.096 272.479 490.379 272.479C492.063 272.479 493.446 272.896 494.529 273.729C495.629 274.562 496.338 275.696 496.654 277.129H494.779C494.546 276.146 494.038 275.379 493.254 274.829C492.488 274.262 491.529 273.979 490.379 273.979C489.463 273.979 488.638 274.187 487.904 274.604C487.171 275.021 486.588 275.646 486.154 276.479C485.738 277.296 485.529 278.304 485.529 279.504C485.529 280.704 485.738 281.721 486.154 282.554C486.588 283.387 487.171 284.012 487.904 284.429C488.638 284.846 489.463 285.054 490.379 285.054C491.529 285.054 492.488 284.779 493.254 284.229C494.038 283.662 494.546 282.879 494.779 281.879H496.654C496.338 283.279 495.629 284.404 494.529 285.254C493.429 286.104 492.046 286.529 490.379 286.529C489.096 286.529 487.954 286.246 486.954 285.679C485.954 285.096 485.171 284.279 484.604 283.229C484.038 282.162 483.754 280.921 483.754 279.504ZM499.086 279.479C499.086 278.079 499.361 276.854 499.911 275.804C500.478 274.737 501.253 273.921 502.236 273.354C503.236 272.771 504.361 272.479 505.611 272.479C506.911 272.479 508.028 272.779 508.961 273.379C509.911 273.979 510.595 274.746 511.011 275.679V272.679H512.761V286.329H511.011V283.304C510.578 284.237 509.886 285.012 508.936 285.629C508.003 286.229 506.886 286.529 505.586 286.529C504.353 286.529 503.236 286.237 502.236 285.654C501.253 285.071 500.478 284.246 499.911 283.179C499.361 282.112 499.086 280.879 499.086 279.479ZM511.011 279.504C511.011 278.404 510.786 277.437 510.336 276.604C509.886 275.771 509.27 275.129 508.486 274.679C507.72 274.229 506.87 274.004 505.936 274.004C504.97 274.004 504.103 274.221 503.336 274.654C502.57 275.087 501.961 275.721 501.511 276.554C501.078 277.371 500.861 278.346 500.861 279.479C500.861 280.596 501.078 281.579 501.511 282.429C501.961 283.262 502.57 283.904 503.336 284.354C504.103 284.787 504.97 285.004 505.936 285.004C506.87 285.004 507.72 284.779 508.486 284.329C509.27 283.879 509.886 283.237 510.336 282.404C510.786 281.571 511.011 280.604 511.011 279.504ZM503.061 271.179C503.161 270.429 503.403 269.854 503.786 269.454C504.17 269.054 504.661 268.854 505.261 268.854C505.561 268.854 505.82 268.912 506.036 269.029C506.253 269.129 506.511 269.279 506.811 269.479C507.061 269.662 507.278 269.804 507.461 269.904C507.645 269.987 507.845 270.029 508.061 270.029C508.345 270.029 508.586 269.937 508.786 269.754C508.986 269.554 509.111 269.271 509.161 268.904H510.211C510.145 269.637 509.903 270.212 509.486 270.629C509.086 271.029 508.586 271.229 507.986 271.229C507.67 271.229 507.395 271.179 507.161 271.079C506.945 270.962 506.686 270.796 506.386 270.579C506.153 270.396 505.945 270.262 505.761 270.179C505.595 270.096 505.403 270.054 505.186 270.054C504.586 270.054 504.236 270.429 504.136 271.179H503.061ZM522.731 286.529C521.448 286.529 520.29 286.246 519.256 285.679C518.24 285.096 517.431 284.279 516.831 283.229C516.248 282.162 515.956 280.921 515.956 279.504C515.956 278.087 516.256 276.854 516.856 275.804C517.456 274.737 518.273 273.921 519.306 273.354C520.34 272.771 521.498 272.479 522.781 272.479C524.065 272.479 525.223 272.771 526.256 273.354C527.306 273.921 528.123 274.737 528.706 275.804C529.306 276.854 529.606 278.087 529.606 279.504C529.606 280.904 529.306 282.137 528.706 283.204C528.106 284.271 527.281 285.096 526.231 285.679C525.181 286.246 524.015 286.529 522.731 286.529ZM522.731 285.004C523.631 285.004 524.465 284.804 525.231 284.404C525.998 283.987 526.615 283.371 527.081 282.554C527.565 281.721 527.806 280.704 527.806 279.504C527.806 278.304 527.573 277.296 527.106 276.479C526.64 275.646 526.023 275.029 525.256 274.629C524.49 274.212 523.656 274.004 522.756 274.004C521.856 274.004 521.023 274.212 520.256 274.629C519.49 275.029 518.873 275.646 518.406 276.479C517.956 277.296 517.731 278.304 517.731 279.504C517.731 280.704 517.956 281.721 518.406 282.554C518.873 283.371 519.481 283.987 520.231 284.404C520.998 284.804 521.831 285.004 522.731 285.004ZM538.857 279.479C538.857 278.079 539.14 276.854 539.707 275.804C540.273 274.737 541.048 273.921 542.032 273.354C543.032 272.771 544.157 272.479 545.407 272.479C546.607 272.479 547.69 272.771 548.657 273.354C549.623 273.937 550.332 274.696 550.782 275.629V267.829H552.532V286.329H550.782V283.279C550.365 284.229 549.682 285.012 548.732 285.629C547.782 286.229 546.665 286.529 545.382 286.529C544.132 286.529 543.007 286.237 542.007 285.654C541.023 285.071 540.248 284.246 539.682 283.179C539.132 282.112 538.857 280.879 538.857 279.479ZM550.782 279.504C550.782 278.404 550.557 277.437 550.107 276.604C549.657 275.771 549.04 275.129 548.257 274.679C547.49 274.229 546.64 274.004 545.707 274.004C544.74 274.004 543.873 274.221 543.107 274.654C542.34 275.087 541.732 275.721 541.282 276.554C540.848 277.371 540.632 278.346 540.632 279.479C540.632 280.596 540.848 281.579 541.282 282.429C541.732 283.262 542.34 283.904 543.107 284.354C543.873 284.787 544.74 285.004 545.707 285.004C546.64 285.004 547.49 284.779 548.257 284.329C549.04 283.879 549.657 283.237 550.107 282.404C550.557 281.571 550.782 280.604 550.782 279.504ZM562.502 286.529C561.219 286.529 560.06 286.246 559.027 285.679C558.01 285.096 557.202 284.279 556.602 283.229C556.019 282.162 555.727 280.921 555.727 279.504C555.727 278.087 556.027 276.854 556.627 275.804C557.227 274.737 558.044 273.921 559.077 273.354C560.11 272.771 561.269 272.479 562.552 272.479C563.835 272.479 564.994 272.771 566.027 273.354C567.077 273.921 567.894 274.737 568.477 275.804C569.077 276.854 569.377 278.087 569.377 279.504C569.377 280.904 569.077 282.137 568.477 283.204C567.877 284.271 567.052 285.096 566.002 285.679C564.952 286.246 563.785 286.529 562.502 286.529ZM562.502 285.004C563.402 285.004 564.235 284.804 565.002 284.404C565.769 283.987 566.385 283.371 566.852 282.554C567.335 281.721 567.577 280.704 567.577 279.504C567.577 278.304 567.344 277.296 566.877 276.479C566.41 275.646 565.794 275.029 565.027 274.629C564.26 274.212 563.427 274.004 562.527 274.004C561.627 274.004 560.794 274.212 560.027 274.629C559.26 275.029 558.644 275.646 558.177 276.479C557.727 277.296 557.502 278.304 557.502 279.504C557.502 280.704 557.727 281.721 558.177 282.554C558.644 283.371 559.252 283.987 560.002 284.404C560.769 284.804 561.602 285.004 562.502 285.004ZM578.627 279.479C578.627 278.079 578.911 276.854 579.477 275.804C580.044 274.737 580.819 273.921 581.802 273.354C582.802 272.771 583.927 272.479 585.177 272.479C586.377 272.479 587.461 272.771 588.427 273.354C589.394 273.937 590.102 274.696 590.552 275.629V267.829H592.302V286.329H590.552V283.279C590.136 284.229 589.452 285.012 588.502 285.629C587.552 286.229 586.436 286.529 585.152 286.529C583.902 286.529 582.777 286.237 581.777 285.654C580.794 285.071 580.019 284.246 579.452 283.179C578.902 282.112 578.627 280.879 578.627 279.479ZM590.552 279.504C590.552 278.404 590.327 277.437 589.877 276.604C589.427 275.771 588.811 275.129 588.027 274.679C587.261 274.229 586.411 274.004 585.477 274.004C584.511 274.004 583.644 274.221 582.877 274.654C582.111 275.087 581.502 275.721 581.052 276.554C580.619 277.371 580.402 278.346 580.402 279.479C580.402 280.596 580.619 281.579 581.052 282.429C581.502 283.262 582.111 283.904 582.877 284.354C583.644 284.787 584.511 285.004 585.477 285.004C586.411 285.004 587.261 284.779 588.027 284.329C588.811 283.879 589.427 283.237 589.877 282.404C590.327 281.571 590.552 280.604 590.552 279.504ZM602.272 286.529C600.989 286.529 599.831 286.246 598.797 285.679C597.781 285.096 596.972 284.279 596.372 283.229C595.789 282.162 595.497 280.921 595.497 279.504C595.497 278.087 595.797 276.854 596.397 275.804C596.997 274.737 597.814 273.921 598.847 273.354C599.881 272.771 601.039 272.479 602.322 272.479C603.606 272.479 604.764 272.771 605.797 273.354C606.847 273.921 607.664 274.737 608.247 275.804C608.847 276.854 609.147 278.087 609.147 279.504C609.147 280.904 608.847 282.137 608.247 283.204C607.647 284.271 606.822 285.096 605.772 285.679C604.722 286.246 603.556 286.529 602.272 286.529ZM602.272 285.004C603.172 285.004 604.006 284.804 604.772 284.404C605.539 283.987 606.156 283.371 606.622 282.554C607.106 281.721 607.347 280.704 607.347 279.504C607.347 278.304 607.114 277.296 606.647 276.479C606.181 275.646 605.564 275.029 604.797 274.629C604.031 274.212 603.197 274.004 602.297 274.004C601.397 274.004 600.564 274.212 599.797 274.629C599.031 275.029 598.414 275.646 597.947 276.479C597.497 277.296 597.272 278.304 597.272 279.504C597.272 280.704 597.497 281.721 597.947 282.554C598.414 283.371 599.022 283.987 599.772 284.404C600.539 284.804 601.372 285.004 602.272 285.004ZM604.672 268.529L599.547 271.504V270.154L604.672 266.954V268.529ZM614.087 267.829V286.329H612.337V267.829H614.087ZM617.25 279.479C617.25 278.079 617.525 276.854 618.075 275.804C618.642 274.737 619.417 273.921 620.4 273.354C621.4 272.771 622.525 272.479 623.775 272.479C625.075 272.479 626.192 272.779 627.125 273.379C628.075 273.979 628.759 274.746 629.175 275.679V272.679H630.925V286.329H629.175V283.304C628.742 284.237 628.05 285.012 627.1 285.629C626.167 286.229 625.05 286.529 623.75 286.529C622.517 286.529 621.4 286.237 620.4 285.654C619.417 285.071 618.642 284.246 618.075 283.179C617.525 282.112 617.25 280.879 617.25 279.479ZM629.175 279.504C629.175 278.404 628.95 277.437 628.5 276.604C628.05 275.771 627.434 275.129 626.65 274.679C625.884 274.229 625.034 274.004 624.1 274.004C623.134 274.004 622.267 274.221 621.5 274.654C620.734 275.087 620.125 275.721 619.675 276.554C619.242 277.371 619.025 278.346 619.025 279.479C619.025 280.596 619.242 281.579 619.675 282.429C620.125 283.262 620.734 283.904 621.5 284.354C622.267 284.787 623.134 285.004 624.1 285.004C625.034 285.004 625.884 284.779 626.65 284.329C627.434 283.879 628.05 283.237 628.5 282.404C628.95 281.571 629.175 280.604 629.175 279.504ZM636.67 275.104C637.054 274.254 637.637 273.596 638.42 273.129C639.22 272.662 640.195 272.429 641.345 272.429V274.254H640.87C639.604 274.254 638.587 274.596 637.82 275.279C637.054 275.962 636.67 277.104 636.67 278.704V286.329H634.92V272.679H636.67V275.104ZM663.188 278.804C663.188 279.404 663.172 279.862 663.138 280.179H651.813C651.863 281.212 652.113 282.096 652.563 282.829C653.013 283.562 653.605 284.121 654.338 284.504C655.072 284.871 655.872 285.054 656.738 285.054C657.872 285.054 658.822 284.779 659.588 284.229C660.372 283.679 660.888 282.937 661.138 282.004H662.988C662.655 283.337 661.938 284.429 660.838 285.279C659.755 286.112 658.388 286.529 656.738 286.529C655.455 286.529 654.305 286.246 653.288 285.679C652.272 285.096 651.472 284.279 650.888 283.229C650.322 282.162 650.038 280.921 650.038 279.504C650.038 278.087 650.322 276.846 650.888 275.779C651.455 274.712 652.247 273.896 653.263 273.329C654.28 272.762 655.438 272.479 656.738 272.479C658.038 272.479 659.172 272.762 660.138 273.329C661.122 273.896 661.872 274.662 662.388 275.629C662.922 276.579 663.188 277.637 663.188 278.804ZM661.413 278.754C661.43 277.737 661.222 276.871 660.788 276.154C660.372 275.437 659.797 274.896 659.063 274.529C658.33 274.162 657.53 273.979 656.663 273.979C655.363 273.979 654.255 274.396 653.338 275.229C652.422 276.062 651.913 277.237 651.813 278.754H661.413ZM679.225 286.529C677.942 286.529 676.784 286.246 675.75 285.679C674.734 285.096 673.925 284.279 673.325 283.229C672.742 282.162 672.45 280.921 672.45 279.504C672.45 278.087 672.75 276.854 673.35 275.804C673.95 274.737 674.767 273.921 675.8 273.354C676.834 272.771 677.992 272.479 679.275 272.479C680.559 272.479 681.717 272.771 682.75 273.354C683.8 273.921 684.617 274.737 685.2 275.804C685.8 276.854 686.1 278.087 686.1 279.504C686.1 280.904 685.8 282.137 685.2 283.204C684.6 284.271 683.775 285.096 682.725 285.679C681.675 286.246 680.509 286.529 679.225 286.529ZM679.225 285.004C680.125 285.004 680.959 284.804 681.725 284.404C682.492 283.987 683.109 283.371 683.575 282.554C684.059 281.721 684.3 280.704 684.3 279.504C684.3 278.304 684.067 277.296 683.6 276.479C683.134 275.646 682.517 275.029 681.75 274.629C680.984 274.212 680.15 274.004 679.25 274.004C678.35 274.004 677.517 274.212 676.75 274.629C675.984 275.029 675.367 275.646 674.9 276.479C674.45 277.296 674.225 278.304 674.225 279.504C674.225 280.704 674.45 281.721 674.9 282.554C675.367 283.371 675.975 283.987 676.725 284.404C677.492 284.804 678.325 285.004 679.225 285.004ZM701.116 272.679V286.329H699.366V283.929C698.966 284.779 698.349 285.429 697.516 285.879C696.682 286.329 695.749 286.554 694.716 286.554C693.082 286.554 691.749 286.054 690.716 285.054C689.682 284.037 689.166 282.571 689.166 280.654V272.679H690.891V280.454C690.891 281.937 691.257 283.071 691.991 283.854C692.741 284.637 693.757 285.029 695.041 285.029C696.357 285.029 697.407 284.612 698.191 283.779C698.974 282.946 699.366 281.721 699.366 280.104V272.679H701.116ZM707.386 274.154V282.629C707.386 283.462 707.544 284.037 707.861 284.354C708.178 284.671 708.736 284.829 709.536 284.829H711.136V286.329H709.261C708.028 286.329 707.111 286.046 706.511 285.479C705.911 284.896 705.611 283.946 705.611 282.629V274.154H703.711V272.679H705.611V269.254H707.386V272.679H711.136V274.154H707.386ZM715.772 275.104C716.155 274.254 716.739 273.596 717.522 273.129C718.322 272.662 719.297 272.429 720.447 272.429V274.254H719.972C718.705 274.254 717.689 274.596 716.922 275.279C716.155 275.962 715.772 277.104 715.772 278.704V286.329H714.022V272.679H715.772V275.104ZM722.28 279.479C722.28 278.079 722.555 276.854 723.105 275.804C723.671 274.737 724.446 273.921 725.43 273.354C726.43 272.771 727.555 272.479 728.805 272.479C730.105 272.479 731.221 272.779 732.155 273.379C733.105 273.979 733.788 274.746 734.205 275.679V272.679H735.955V286.329H734.205V283.304C733.771 284.237 733.08 285.012 732.13 285.629C731.196 286.229 730.08 286.529 728.78 286.529C727.546 286.529 726.43 286.237 725.43 285.654C724.446 285.071 723.671 284.246 723.105 283.179C722.555 282.112 722.28 280.879 722.28 279.479ZM734.205 279.504C734.205 278.404 733.98 277.437 733.53 276.604C733.08 275.771 732.463 275.129 731.68 274.679C730.913 274.229 730.063 274.004 729.13 274.004C728.163 274.004 727.296 274.221 726.53 274.654C725.763 275.087 725.155 275.721 724.705 276.554C724.271 277.371 724.055 278.346 724.055 279.479C724.055 280.596 724.271 281.579 724.705 282.429C725.155 283.262 725.763 283.904 726.53 284.354C727.296 284.787 728.163 285.004 729.13 285.004C730.063 285.004 730.913 284.779 731.68 284.329C732.463 283.879 733.08 283.237 733.53 282.404C733.98 281.571 734.205 280.604 734.205 279.504ZM744.65 286.529C743.083 286.529 741.8 286.171 740.8 285.454C739.816 284.721 739.266 283.729 739.15 282.479H740.95C741.033 283.246 741.391 283.871 742.025 284.354C742.675 284.821 743.541 285.054 744.625 285.054C745.575 285.054 746.316 284.829 746.85 284.379C747.4 283.929 747.675 283.371 747.675 282.704C747.675 282.237 747.525 281.854 747.225 281.554C746.925 281.254 746.541 281.021 746.075 280.854C745.625 280.671 745.008 280.479 744.225 280.279C743.208 280.012 742.383 279.746 741.75 279.479C741.116 279.212 740.575 278.821 740.125 278.304C739.691 277.771 739.475 277.062 739.475 276.179C739.475 275.512 739.675 274.896 740.075 274.329C740.475 273.762 741.041 273.312 741.775 272.979C742.508 272.646 743.341 272.479 744.275 272.479C745.741 272.479 746.925 272.854 747.825 273.604C748.725 274.337 749.208 275.354 749.275 276.654H747.525C747.475 275.854 747.158 275.212 746.575 274.729C746.008 274.229 745.225 273.979 744.225 273.979C743.341 273.979 742.625 274.187 742.075 274.604C741.525 275.021 741.25 275.537 741.25 276.154C741.25 276.687 741.408 277.129 741.725 277.479C742.058 277.812 742.466 278.079 742.95 278.279C743.433 278.462 744.083 278.671 744.9 278.904C745.883 279.171 746.666 279.429 747.25 279.679C747.833 279.929 748.333 280.296 748.75 280.779C749.166 281.262 749.383 281.904 749.4 282.704C749.4 283.437 749.2 284.096 748.8 284.679C748.4 285.246 747.841 285.696 747.125 286.029C746.408 286.362 745.583 286.529 744.65 286.529ZM462.242 319.429C463.842 319.429 465.142 319.937 466.142 320.954C467.159 321.954 467.667 323.412 467.667 325.329V333.329H465.942V325.529C465.942 324.046 465.584 322.912 464.867 322.129C464.151 321.346 463.176 320.954 461.942 320.954C460.659 320.954 459.634 321.379 458.867 322.229C458.101 323.079 457.717 324.312 457.717 325.929V333.329H455.992V325.529C455.992 324.046 455.634 322.912 454.917 322.129C454.201 321.346 453.217 320.954 451.967 320.954C450.684 320.954 449.659 321.379 448.892 322.229C448.126 323.079 447.742 324.312 447.742 325.929V333.329H445.992V319.679H447.742V322.029C448.176 321.179 448.792 320.537 449.592 320.104C450.392 319.654 451.284 319.429 452.267 319.429C453.451 319.429 454.484 319.712 455.367 320.279C456.267 320.846 456.917 321.679 457.317 322.779C457.684 321.696 458.309 320.871 459.192 320.304C460.092 319.721 461.109 319.429 462.242 319.429ZM477.529 333.529C476.245 333.529 475.087 333.246 474.054 332.679C473.037 332.096 472.229 331.279 471.629 330.229C471.045 329.162 470.754 327.921 470.754 326.504C470.754 325.087 471.054 323.854 471.654 322.804C472.254 321.737 473.07 320.921 474.104 320.354C475.137 319.771 476.295 319.479 477.579 319.479C478.862 319.479 480.02 319.771 481.054 320.354C482.104 320.921 482.92 321.737 483.504 322.804C484.104 323.854 484.404 325.087 484.404 326.504C484.404 327.904 484.104 329.137 483.504 330.204C482.904 331.271 482.079 332.096 481.029 332.679C479.979 333.246 478.812 333.529 477.529 333.529ZM477.529 332.004C478.429 332.004 479.262 331.804 480.029 331.404C480.795 330.987 481.412 330.371 481.879 329.554C482.362 328.721 482.604 327.704 482.604 326.504C482.604 325.304 482.37 324.296 481.904 323.479C481.437 322.646 480.82 322.029 480.054 321.629C479.287 321.212 478.454 321.004 477.554 321.004C476.654 321.004 475.82 321.212 475.054 321.629C474.287 322.029 473.67 322.646 473.204 323.479C472.754 324.296 472.529 325.304 472.529 326.504C472.529 327.704 472.754 328.721 473.204 329.554C473.67 330.371 474.279 330.987 475.029 331.404C475.795 331.804 476.629 332.004 477.529 332.004ZM499.944 325.804C499.944 326.404 499.927 326.862 499.894 327.179H488.569C488.619 328.212 488.869 329.096 489.319 329.829C489.769 330.562 490.36 331.121 491.094 331.504C491.827 331.871 492.627 332.054 493.494 332.054C494.627 332.054 495.577 331.779 496.344 331.229C497.127 330.679 497.644 329.937 497.894 329.004H499.744C499.41 330.337 498.694 331.429 497.594 332.279C496.51 333.112 495.144 333.529 493.494 333.529C492.21 333.529 491.06 333.246 490.044 332.679C489.027 332.096 488.227 331.279 487.644 330.229C487.077 329.162 486.794 327.921 486.794 326.504C486.794 325.087 487.077 323.846 487.644 322.779C488.21 321.712 489.002 320.896 490.019 320.329C491.035 319.762 492.194 319.479 493.494 319.479C494.794 319.479 495.927 319.762 496.894 320.329C497.877 320.896 498.627 321.662 499.144 322.629C499.677 323.579 499.944 324.637 499.944 325.804ZM498.169 325.754C498.185 324.737 497.977 323.871 497.544 323.154C497.127 322.437 496.552 321.896 495.819 321.529C495.085 321.162 494.285 320.979 493.419 320.979C492.119 320.979 491.01 321.396 490.094 322.229C489.177 323.062 488.669 324.237 488.569 325.754H498.169ZM502.346 326.479C502.346 325.079 502.629 323.854 503.196 322.804C503.762 321.737 504.537 320.921 505.521 320.354C506.521 319.771 507.646 319.479 508.896 319.479C510.096 319.479 511.179 319.771 512.146 320.354C513.112 320.937 513.821 321.696 514.271 322.629V314.829H516.021V333.329H514.271V330.279C513.854 331.229 513.171 332.012 512.221 332.629C511.271 333.229 510.154 333.529 508.871 333.529C507.621 333.529 506.496 333.237 505.496 332.654C504.512 332.071 503.737 331.246 503.171 330.179C502.621 329.112 502.346 327.879 502.346 326.479ZM514.271 326.504C514.271 325.404 514.046 324.437 513.596 323.604C513.146 322.771 512.529 322.129 511.746 321.679C510.979 321.229 510.129 321.004 509.196 321.004C508.229 321.004 507.362 321.221 506.596 321.654C505.829 322.087 505.221 322.721 504.771 323.554C504.337 324.371 504.121 325.346 504.121 326.479C504.121 327.596 504.337 328.579 504.771 329.429C505.221 330.262 505.829 330.904 506.596 331.354C507.362 331.787 508.229 332.004 509.196 332.004C510.129 332.004 510.979 331.779 511.746 331.329C512.529 330.879 513.146 330.237 513.596 329.404C514.046 328.571 514.271 327.604 514.271 326.504ZM519.216 326.479C519.216 325.079 519.491 323.854 520.041 322.804C520.607 321.737 521.382 320.921 522.366 320.354C523.366 319.771 524.491 319.479 525.741 319.479C527.041 319.479 528.157 319.779 529.091 320.379C530.041 320.979 530.724 321.746 531.141 322.679V319.679H532.891V333.329H531.141V330.304C530.707 331.237 530.016 332.012 529.066 332.629C528.132 333.229 527.016 333.529 525.716 333.529C524.482 333.529 523.366 333.237 522.366 332.654C521.382 332.071 520.607 331.246 520.041 330.179C519.491 329.112 519.216 327.879 519.216 326.479ZM531.141 326.504C531.141 325.404 530.916 324.437 530.466 323.604C530.016 322.771 529.399 322.129 528.616 321.679C527.849 321.229 526.999 321.004 526.066 321.004C525.099 321.004 524.232 321.221 523.466 321.654C522.699 322.087 522.091 322.721 521.641 323.554C521.207 324.371 520.991 325.346 520.991 326.479C520.991 327.596 521.207 328.579 521.641 329.429C522.091 330.262 522.699 330.904 523.466 331.354C524.232 331.787 525.099 332.004 526.066 332.004C526.999 332.004 527.849 331.779 528.616 331.329C529.399 330.879 530.016 330.237 530.466 329.404C530.916 328.571 531.141 327.604 531.141 326.504ZM541.586 333.529C540.019 333.529 538.736 333.171 537.736 332.454C536.752 331.721 536.202 330.729 536.086 329.479H537.886C537.969 330.246 538.327 330.871 538.961 331.354C539.611 331.821 540.477 332.054 541.561 332.054C542.511 332.054 543.252 331.829 543.786 331.379C544.336 330.929 544.611 330.371 544.611 329.704C544.611 329.237 544.461 328.854 544.161 328.554C543.861 328.254 543.477 328.021 543.011 327.854C542.561 327.671 541.944 327.479 541.161 327.279C540.144 327.012 539.319 326.746 538.686 326.479C538.052 326.212 537.511 325.821 537.061 325.304C536.627 324.771 536.411 324.062 536.411 323.179C536.411 322.512 536.611 321.896 537.011 321.329C537.411 320.762 537.977 320.312 538.711 319.979C539.444 319.646 540.277 319.479 541.211 319.479C542.677 319.479 543.861 319.854 544.761 320.604C545.661 321.337 546.144 322.354 546.211 323.654H544.461C544.411 322.854 544.094 322.212 543.511 321.729C542.944 321.229 542.161 320.979 541.161 320.979C540.277 320.979 539.561 321.187 539.011 321.604C538.461 322.021 538.186 322.537 538.186 323.154C538.186 323.687 538.344 324.129 538.661 324.479C538.994 324.812 539.402 325.079 539.886 325.279C540.369 325.462 541.019 325.671 541.836 325.904C542.819 326.171 543.602 326.429 544.186 326.679C544.769 326.929 545.269 327.296 545.686 327.779C546.102 328.262 546.319 328.904 546.336 329.704C546.336 330.437 546.136 331.096 545.736 331.679C545.336 332.246 544.777 332.696 544.061 333.029C543.344 333.362 542.519 333.529 541.586 333.529ZM557.365 317.104C557.015 317.104 556.715 316.979 556.465 316.729C556.215 316.479 556.09 316.171 556.09 315.804C556.09 315.437 556.215 315.137 556.465 314.904C556.715 314.654 557.015 314.529 557.365 314.529C557.715 314.529 558.015 314.654 558.265 314.904C558.515 315.137 558.64 315.437 558.64 315.804C558.64 316.171 558.515 316.479 558.265 316.729C558.015 316.979 557.715 317.104 557.365 317.104ZM558.24 319.679V333.329H556.49V319.679H558.24ZM568.603 319.429C570.236 319.429 571.57 319.937 572.603 320.954C573.636 321.954 574.153 323.412 574.153 325.329V333.329H572.428V325.529C572.428 324.046 572.053 322.912 571.303 322.129C570.57 321.346 569.561 320.954 568.278 320.954C566.961 320.954 565.911 321.371 565.128 322.204C564.345 323.037 563.953 324.262 563.953 325.879V333.329H562.203V319.679H563.953V322.004C564.386 321.171 565.011 320.537 565.828 320.104C566.645 319.654 567.57 319.429 568.603 319.429ZM580.298 321.154V329.629C580.298 330.462 580.457 331.037 580.773 331.354C581.09 331.671 581.648 331.829 582.448 331.829H584.048V333.329H582.173C580.94 333.329 580.023 333.046 579.423 332.479C578.823 331.896 578.523 330.946 578.523 329.629V321.154H576.623V319.679H578.523V316.254H580.298V319.679H584.048V321.154H580.298ZM599.285 325.804C599.285 326.404 599.268 326.862 599.235 327.179H587.91C587.96 328.212 588.21 329.096 588.66 329.829C589.11 330.562 589.701 331.121 590.435 331.504C591.168 331.871 591.968 332.054 592.835 332.054C593.968 332.054 594.918 331.779 595.685 331.229C596.468 330.679 596.985 329.937 597.235 329.004H599.085C598.751 330.337 598.035 331.429 596.935 332.279C595.851 333.112 594.485 333.529 592.835 333.529C591.551 333.529 590.401 333.246 589.385 332.679C588.368 332.096 587.568 331.279 586.985 330.229C586.418 329.162 586.135 327.921 586.135 326.504C586.135 325.087 586.418 323.846 586.985 322.779C587.551 321.712 588.343 320.896 589.36 320.329C590.376 319.762 591.535 319.479 592.835 319.479C594.135 319.479 595.268 319.762 596.235 320.329C597.218 320.896 597.968 321.662 598.485 322.629C599.018 323.579 599.285 324.637 599.285 325.804ZM597.51 325.754C597.526 324.737 597.318 323.871 596.885 323.154C596.468 322.437 595.893 321.896 595.16 321.529C594.426 321.162 593.626 320.979 592.76 320.979C591.46 320.979 590.351 321.396 589.435 322.229C588.518 323.062 588.01 324.237 587.91 325.754H597.51ZM604.236 322.104C604.62 321.254 605.203 320.596 605.986 320.129C606.786 319.662 607.761 319.429 608.911 319.429V321.254H608.436C607.17 321.254 606.153 321.596 605.386 322.279C604.62 322.962 604.236 324.104 604.236 325.704V333.329H602.486V319.679H604.236V322.104ZM617.944 319.429C619.577 319.429 620.911 319.937 621.944 320.954C622.977 321.954 623.494 323.412 623.494 325.329V333.329H621.769V325.529C621.769 324.046 621.394 322.912 620.644 322.129C619.911 321.346 618.902 320.954 617.619 320.954C616.302 320.954 615.252 321.371 614.469 322.204C613.686 323.037 613.294 324.262 613.294 325.879V333.329H611.544V319.679H613.294V322.004C613.727 321.171 614.352 320.537 615.169 320.104C615.986 319.654 616.911 319.429 617.944 319.429ZM626.564 326.479C626.564 325.079 626.839 323.854 627.389 322.804C627.956 321.737 628.731 320.921 629.714 320.354C630.714 319.771 631.839 319.479 633.089 319.479C634.389 319.479 635.506 319.779 636.439 320.379C637.389 320.979 638.073 321.746 638.489 322.679V319.679H640.239V333.329H638.489V330.304C638.056 331.237 637.364 332.012 636.414 332.629C635.481 333.229 634.364 333.529 633.064 333.529C631.831 333.529 630.714 333.237 629.714 332.654C628.731 332.071 627.956 331.246 627.389 330.179C626.839 329.112 626.564 327.879 626.564 326.479ZM638.489 326.504C638.489 325.404 638.264 324.437 637.814 323.604C637.364 322.771 636.748 322.129 635.964 321.679C635.198 321.229 634.348 321.004 633.414 321.004C632.448 321.004 631.581 321.221 630.814 321.654C630.048 322.087 629.439 322.721 628.989 323.554C628.556 324.371 628.339 325.346 628.339 326.479C628.339 327.596 628.556 328.579 628.989 329.429C629.439 330.262 630.048 330.904 630.814 331.354C631.581 331.787 632.448 332.004 633.414 332.004C634.348 332.004 635.198 331.779 635.964 331.329C636.748 330.879 637.364 330.237 637.814 329.404C638.264 328.571 638.489 327.604 638.489 326.504ZM643.434 326.504C643.434 325.087 643.718 323.854 644.284 322.804C644.851 321.737 645.634 320.921 646.634 320.354C647.634 319.771 648.776 319.479 650.059 319.479C651.743 319.479 653.126 319.896 654.209 320.729C655.309 321.562 656.018 322.696 656.334 324.129H654.459C654.226 323.146 653.718 322.379 652.934 321.829C652.168 321.262 651.209 320.979 650.059 320.979C649.143 320.979 648.318 321.187 647.584 321.604C646.851 322.021 646.268 322.646 645.834 323.479C645.418 324.296 645.209 325.304 645.209 326.504C645.209 327.704 645.418 328.721 645.834 329.554C646.268 330.387 646.851 331.012 647.584 331.429C648.318 331.846 649.143 332.054 650.059 332.054C651.209 332.054 652.168 331.779 652.934 331.229C653.718 330.662 654.226 329.879 654.459 328.879H656.334C656.018 330.279 655.309 331.404 654.209 332.254C653.109 333.104 651.726 333.529 650.059 333.529C648.776 333.529 647.634 333.246 646.634 332.679C645.634 332.096 644.851 331.279 644.284 330.229C643.718 329.162 643.434 327.921 643.434 326.504ZM660.441 317.104C660.091 317.104 659.791 316.979 659.541 316.729C659.291 316.479 659.166 316.171 659.166 315.804C659.166 315.437 659.291 315.137 659.541 314.904C659.791 314.654 660.091 314.529 660.441 314.529C660.791 314.529 661.091 314.654 661.341 314.904C661.591 315.137 661.716 315.437 661.716 315.804C661.716 316.171 661.591 316.479 661.341 316.729C661.091 316.979 660.791 317.104 660.441 317.104ZM661.316 319.679V333.329H659.566V319.679H661.316ZM671.254 333.529C669.971 333.529 668.813 333.246 667.779 332.679C666.763 332.096 665.954 331.279 665.354 330.229C664.771 329.162 664.479 327.921 664.479 326.504C664.479 325.087 664.779 323.854 665.379 322.804C665.979 321.737 666.796 320.921 667.829 320.354C668.863 319.771 670.021 319.479 671.304 319.479C672.588 319.479 673.746 319.771 674.779 320.354C675.829 320.921 676.646 321.737 677.229 322.804C677.829 323.854 678.129 325.087 678.129 326.504C678.129 327.904 677.829 329.137 677.229 330.204C676.629 331.271 675.804 332.096 674.754 332.679C673.704 333.246 672.538 333.529 671.254 333.529ZM671.254 332.004C672.154 332.004 672.988 331.804 673.754 331.404C674.521 330.987 675.138 330.371 675.604 329.554C676.088 328.721 676.329 327.704 676.329 326.504C676.329 325.304 676.096 324.296 675.629 323.479C675.163 322.646 674.546 322.029 673.779 321.629C673.013 321.212 672.179 321.004 671.279 321.004C670.379 321.004 669.546 321.212 668.779 321.629C668.013 322.029 667.396 322.646 666.929 323.479C666.479 324.296 666.254 325.304 666.254 326.504C666.254 327.704 666.479 328.721 666.929 329.554C667.396 330.371 668.004 330.987 668.754 331.404C669.521 331.804 670.354 332.004 671.254 332.004ZM687.719 319.429C689.353 319.429 690.686 319.937 691.719 320.954C692.753 321.954 693.269 323.412 693.269 325.329V333.329H691.544V325.529C691.544 324.046 691.169 322.912 690.419 322.129C689.686 321.346 688.678 320.954 687.394 320.954C686.078 320.954 685.028 321.371 684.244 322.204C683.461 323.037 683.069 324.262 683.069 325.879V333.329H681.319V319.679H683.069V322.004C683.503 321.171 684.128 320.537 684.944 320.104C685.761 319.654 686.686 319.429 687.719 319.429ZM696.34 326.479C696.34 325.079 696.615 323.854 697.165 322.804C697.731 321.737 698.506 320.921 699.49 320.354C700.49 319.771 701.615 319.479 702.865 319.479C704.165 319.479 705.281 319.779 706.215 320.379C707.165 320.979 707.848 321.746 708.265 322.679V319.679H710.015V333.329H708.265V330.304C707.831 331.237 707.14 332.012 706.19 332.629C705.256 333.229 704.14 333.529 702.84 333.529C701.606 333.529 700.49 333.237 699.49 332.654C698.506 332.071 697.731 331.246 697.165 330.179C696.615 329.112 696.34 327.879 696.34 326.479ZM708.265 326.504C708.265 325.404 708.04 324.437 707.59 323.604C707.14 322.771 706.523 322.129 705.74 321.679C704.973 321.229 704.123 321.004 703.19 321.004C702.223 321.004 701.356 321.221 700.59 321.654C699.823 322.087 699.215 322.721 698.765 323.554C698.331 324.371 698.115 325.346 698.115 326.479C698.115 327.596 698.331 328.579 698.765 329.429C699.215 330.262 699.823 330.904 700.59 331.354C701.356 331.787 702.223 332.004 703.19 332.004C704.123 332.004 704.973 331.779 705.74 331.329C706.523 330.879 707.14 330.237 707.59 329.404C708.04 328.571 708.265 327.604 708.265 326.504ZM714.885 317.104C714.535 317.104 714.235 316.979 713.985 316.729C713.735 316.479 713.61 316.171 713.61 315.804C713.61 315.437 713.735 315.137 713.985 314.904C714.235 314.654 714.535 314.529 714.885 314.529C715.235 314.529 715.535 314.654 715.785 314.904C716.035 315.137 716.16 315.437 716.16 315.804C716.16 316.171 716.035 316.479 715.785 316.729C715.535 316.979 715.235 317.104 714.885 317.104ZM715.76 319.679V333.329H714.01V319.679H715.76ZM724.423 333.529C722.856 333.529 721.573 333.171 720.573 332.454C719.589 331.721 719.039 330.729 718.923 329.479H720.723C720.806 330.246 721.164 330.871 721.798 331.354C722.448 331.821 723.314 332.054 724.398 332.054C725.348 332.054 726.089 331.829 726.623 331.379C727.173 330.929 727.448 330.371 727.448 329.704C727.448 329.237 727.298 328.854 726.998 328.554C726.698 328.254 726.314 328.021 725.848 327.854C725.398 327.671 724.781 327.479 723.998 327.279C722.981 327.012 722.156 326.746 721.523 326.479C720.889 326.212 720.348 325.821 719.898 325.304C719.464 324.771 719.248 324.062 719.248 323.179C719.248 322.512 719.448 321.896 719.848 321.329C720.248 320.762 720.814 320.312 721.548 319.979C722.281 319.646 723.114 319.479 724.048 319.479C725.514 319.479 726.698 319.854 727.598 320.604C728.498 321.337 728.981 322.354 729.048 323.654H727.298C727.248 322.854 726.931 322.212 726.348 321.729C725.781 321.229 724.998 320.979 723.998 320.979C723.114 320.979 722.398 321.187 721.848 321.604C721.298 322.021 721.023 322.537 721.023 323.154C721.023 323.687 721.181 324.129 721.498 324.479C721.831 324.812 722.239 325.079 722.723 325.279C723.206 325.462 723.856 325.671 724.673 325.904C725.656 326.171 726.439 326.429 727.023 326.679C727.606 326.929 728.106 327.296 728.523 327.779C728.939 328.262 729.156 328.904 729.173 329.704C729.173 330.437 728.973 331.096 728.573 331.679C728.173 332.246 727.614 332.696 726.898 333.029C726.181 333.362 725.356 333.529 724.423 333.529ZM732.767 333.454C732.4 333.454 732.092 333.329 731.842 333.079C731.608 332.829 731.492 332.521 731.492 332.154C731.492 331.787 731.608 331.487 731.842 331.254C732.092 331.004 732.4 330.879 732.767 330.879C733.117 330.879 733.408 331.004 733.642 331.254C733.892 331.487 734.017 331.787 734.017 332.154C734.017 332.521 733.892 332.829 733.642 333.079C733.408 333.329 733.117 333.454 732.767 333.454Z" fill="#D9D9D9"/>
<path d="M334.484 100.373C334.484 94.1679 335.87 88.6256 338.641 83.746C341.472 78.8061 345.298 74.9807 350.117 72.2698C354.997 69.4987 360.448 68.1131 366.473 68.1131C373.521 68.1131 379.696 69.9204 384.997 73.5349C390.298 77.1495 394.003 82.1496 396.112 88.5352H381.563C380.118 85.5231 378.069 83.264 375.419 81.758C372.828 80.2519 369.816 79.4989 366.382 79.4989C362.708 79.4989 359.424 80.3724 356.533 82.1194C353.701 83.8062 351.472 86.2159 349.846 89.3485C348.28 92.4811 347.496 96.1559 347.496 100.373C347.496 104.53 348.28 108.204 349.846 111.397C351.472 114.53 353.701 116.97 356.533 118.717C359.424 120.403 362.708 121.247 366.382 121.247C369.816 121.247 372.828 120.494 375.419 118.988C378.069 117.421 380.118 115.132 381.563 112.12H396.112C394.003 118.566 390.298 123.596 384.997 127.211C379.756 130.765 373.581 132.542 366.473 132.542C360.448 132.542 354.997 131.187 350.117 128.476C345.298 125.705 341.472 121.879 338.641 117C335.87 112.12 334.484 106.578 334.484 100.373ZM454.177 81.9387V132H441.436V125.675C439.81 127.843 437.671 129.56 435.02 130.825C432.43 132.03 429.599 132.633 426.526 132.633C422.61 132.633 419.147 131.819 416.134 130.193C413.122 128.506 410.743 126.066 408.996 122.873C407.309 119.62 406.466 115.765 406.466 111.307V81.9387H419.116V109.5C419.116 113.476 420.11 116.548 422.098 118.717C424.086 120.825 426.797 121.879 430.231 121.879C433.725 121.879 436.466 120.825 438.454 118.717C440.442 116.548 441.436 113.476 441.436 109.5V81.9387H454.177ZM479.31 89.71C480.937 87.0593 483.045 84.9809 485.636 83.4749C488.286 81.9688 491.299 81.2158 494.672 81.2158V94.4992H491.329C487.353 94.4992 484.341 95.433 482.292 97.3005C480.304 99.168 479.31 102.421 479.31 107.06V132H466.66V81.9387H479.31V89.71ZM515.844 89.71C517.471 87.0593 519.579 84.9809 522.169 83.4749C524.82 81.9688 527.832 81.2158 531.206 81.2158V94.4992H527.862C523.886 94.4992 520.874 95.433 518.826 97.3005C516.838 99.168 515.844 102.421 515.844 107.06V132H503.193V81.9387H515.844V89.71ZM586.264 105.885C586.264 107.692 586.143 109.319 585.902 110.765H549.305C549.606 114.379 550.872 117.211 553.101 119.259C555.329 121.307 558.07 122.331 561.324 122.331C566.022 122.331 569.366 120.313 571.354 116.277H584.999C583.553 121.096 580.782 125.072 576.685 128.205C572.589 131.277 567.559 132.813 561.595 132.813C556.775 132.813 552.438 131.759 548.582 129.651C544.787 127.482 541.805 124.44 539.636 120.524C537.528 116.608 536.474 112.09 536.474 106.969C536.474 101.789 537.528 97.2402 539.636 93.3245C541.745 89.4087 544.697 86.3966 548.492 84.2882C552.287 82.1797 556.655 81.1254 561.595 81.1254C566.354 81.1254 570.601 82.1496 574.336 84.1978C578.131 86.246 581.053 89.1678 583.101 92.963C585.21 96.6981 586.264 101.005 586.264 105.885ZM573.161 102.27C573.101 99.0174 571.926 96.427 569.637 94.4992C567.348 92.5112 564.547 91.5172 561.233 91.5172C558.101 91.5172 555.45 92.4811 553.281 94.4089C551.173 96.2764 549.878 98.8969 549.396 102.27H573.161ZM623.239 81.2158C629.203 81.2158 634.023 83.1134 637.698 86.9087C641.372 90.6437 643.21 95.8848 643.21 102.632V132H630.559V104.349C630.559 100.373 629.565 97.3306 627.577 95.2221C625.589 93.0534 622.878 91.969 619.444 91.969C615.95 91.969 613.179 93.0534 611.131 95.2221C609.143 97.3306 608.149 100.373 608.149 104.349V132H595.498V81.9387H608.149V88.1738C609.836 86.0051 611.974 84.3183 614.565 83.1134C617.215 81.8483 620.107 81.2158 623.239 81.2158ZM651.987 106.969C651.987 101.789 653.041 97.2704 655.15 93.4149C657.258 89.4991 660.18 86.487 663.915 84.3785C667.65 82.2098 671.927 81.1254 676.746 81.1254C682.951 81.1254 688.072 82.6917 692.108 85.8243C696.205 88.8967 698.946 93.2341 700.331 98.8367H686.686C685.964 96.6679 684.729 94.9812 682.982 93.7763C681.295 92.5112 679.186 91.8787 676.656 91.8787C673.042 91.8787 670.18 93.204 668.072 95.8547C665.963 98.4451 664.909 102.15 664.909 106.969C664.909 111.728 665.963 115.433 668.072 118.084C670.18 120.674 673.042 121.97 676.656 121.97C681.777 121.97 685.12 119.68 686.686 115.102H700.331C698.946 120.524 696.205 124.831 692.108 128.024C688.012 131.217 682.891 132.813 676.746 132.813C671.927 132.813 667.65 131.759 663.915 129.651C660.18 127.482 657.258 124.47 655.15 120.614C653.041 116.698 651.987 112.15 651.987 106.969ZM757.492 81.9387L726.497 155.675H713.033L723.877 130.735L703.816 81.9387H718.003L730.925 116.909L744.028 81.9387H757.492Z" fill="url(#paint1_linear_0_105)"/>
<path d="M457.87 162.25V172.462H441.063V225.324H428.412V172.462H411.604V162.25H457.87ZM479.752 183.034C481.378 180.383 483.487 178.305 486.077 176.799C488.728 175.293 491.74 174.54 495.113 174.54V187.823H491.77C487.794 187.823 484.782 188.757 482.734 190.625C480.746 192.492 479.752 195.745 479.752 200.384V225.324H467.101V175.263H479.752V183.034ZM500.381 200.113C500.381 195.052 501.375 190.564 503.363 186.649C505.412 182.733 508.153 179.721 511.586 177.612C515.08 175.504 518.966 174.45 523.243 174.45C526.978 174.45 530.231 175.203 533.002 176.709C535.834 178.215 538.093 180.112 539.78 182.402V175.263H552.521V225.324H539.78V218.005C538.153 220.354 535.894 222.312 533.002 223.878C530.171 225.384 526.888 226.137 523.153 226.137C518.936 226.137 515.08 225.053 511.586 222.884C508.153 220.716 505.412 217.673 503.363 213.758C501.375 209.782 500.381 205.233 500.381 200.113ZM539.78 200.293C539.78 197.221 539.177 194.601 537.972 192.432C536.768 190.203 535.141 188.516 533.093 187.371C531.045 186.167 528.846 185.564 526.496 185.564C524.147 185.564 521.978 186.137 519.99 187.281C518.002 188.426 516.376 190.113 515.111 192.341C513.906 194.51 513.303 197.101 513.303 200.113C513.303 203.125 513.906 205.775 515.111 208.065C516.376 210.294 518.002 212.011 519.99 213.215C522.038 214.42 524.207 215.023 526.496 215.023C528.846 215.023 531.045 214.45 533.093 213.306C535.141 212.101 536.768 210.414 537.972 208.245C539.177 206.016 539.78 203.366 539.78 200.293ZM561.624 200.293C561.624 195.113 562.678 190.594 564.786 186.739C566.895 182.823 569.817 179.811 573.552 177.703C577.287 175.534 581.564 174.45 586.383 174.45C592.588 174.45 597.709 176.016 601.745 179.148C605.841 182.221 608.582 186.558 609.968 192.161H596.323C595.6 189.992 594.365 188.305 592.618 187.1C590.931 185.835 588.823 185.203 586.293 185.203C582.678 185.203 579.817 186.528 577.708 189.179C575.6 191.769 574.546 195.474 574.546 200.293C574.546 205.053 575.6 208.757 577.708 211.408C579.817 213.999 582.678 215.294 586.293 215.294C591.413 215.294 594.757 213.005 596.323 208.426H609.968C608.582 213.848 605.841 218.155 601.745 221.348C597.648 224.541 592.528 226.137 586.383 226.137C581.564 226.137 577.287 225.083 573.552 222.975C569.817 220.806 566.895 217.794 564.786 213.938C562.678 210.023 561.624 205.474 561.624 200.293ZM648.875 225.324L631.887 203.998V225.324H619.236V158.455H631.887V196.498L648.694 175.263H665.14L643.092 200.384L665.321 225.324H648.875ZM718.544 199.209C718.544 201.016 718.423 202.643 718.182 204.089H681.585C681.886 207.703 683.151 210.535 685.38 212.583C687.609 214.631 690.35 215.655 693.603 215.655C698.302 215.655 701.646 213.637 703.634 209.601H717.279C715.833 214.42 713.062 218.396 708.965 221.529C704.869 224.601 699.839 226.137 693.875 226.137C689.055 226.137 684.718 225.083 680.862 222.975C677.067 220.806 674.085 217.764 671.916 213.848C669.808 209.932 668.754 205.414 668.754 200.293C668.754 195.113 669.808 190.564 671.916 186.649C674.025 182.733 676.977 179.721 680.772 177.612C684.567 175.504 688.935 174.45 693.875 174.45C698.634 174.45 702.881 175.474 706.616 177.522C710.411 179.57 713.333 182.492 715.381 186.287C717.49 190.022 718.544 194.329 718.544 199.209ZM705.441 195.595C705.381 192.341 704.206 189.751 701.917 187.823C699.628 185.835 696.826 184.841 693.513 184.841C690.381 184.841 687.73 185.805 685.561 187.733C683.453 189.6 682.157 192.221 681.676 195.595H705.441ZM740.429 183.034C742.055 180.383 744.164 178.305 746.754 176.799C749.405 175.293 752.417 174.54 755.79 174.54V187.823H752.447C748.471 187.823 745.459 188.757 743.411 190.625C741.423 192.492 740.429 195.745 740.429 200.384V225.324H727.778V175.263H740.429V183.034Z" fill="url(#paint2_linear_0_105)"/>
<path d="M848.308 69.3082V284.428C848.308 305.434 865.265 322.39 886.271 322.39H1101.39" stroke="url(#paint3_linear_0_105)" stroke-width="24.6445" stroke-miterlimit="10" stroke-linecap="round" stroke-linejoin="round"/>
<path d="M886.271 259.12L944.353 191.294C953.97 180.158 971.053 179.399 981.429 189.902L993.451 201.923C1003.83 212.3 1020.91 211.667 1030.53 200.531L1088.74 132.579" stroke="url(#paint4_linear_0_105)" stroke-width="24.6445" stroke-miterlimit="10" stroke-linecap="round" stroke-linejoin="round"/>
</g>
<defs>
<filter id="filter0_d_0_105" x="331.321" y="44" width="798.542" height="310.026" filterUnits="userSpaceOnUse" color-interpolation-filters="sRGB">
<feFlood flood-opacity="0" result="BackgroundImageFix"/>
<feColorMatrix in="SourceAlpha" type="matrix" values="0 0 0 0 0 0 0 0 0 0 0 0 0 0 0 0 0 0 127 0" result="hardAlpha"/>
<feOffset dy="3.16353"/>
<feGaussianBlur stdDeviation="1.58176"/>
<feComposite in2="hardAlpha" operator="out"/>
<feColorMatrix type="matrix" values="0 0 0 0 0 0 0 0 0 0 0 0 0 0 0 0 0 0 0.5 0"/>
<feBlend mode="normal" in2="BackgroundImageFix" result="effect1_dropShadow_0_105"/>
<feBlend mode="normal" in="SourceGraphic" in2="effect1_dropShadow_0_105" result="shape"/>
</filter>
<linearGradient id="paint0_linear_0_105" x1="1273.5" y1="50.4359" x2="592.132" y2="794.289" gradientUnits="userSpaceOnUse">
<stop stop-color="#121212"/>
<stop offset="1" stop-color="#247940" stop-opacity="0"/>
</linearGradient>
<linearGradient id="paint1_linear_0_105" x1="331" y1="102.784" x2="758.076" y2="107.529" gradientUnits="userSpaceOnUse">
<stop stop-color="#00CE2C"/>
<stop offset="0.492615" stop-color="#AEDF23"/>
<stop offset="1" stop-color="#A3DC00"/>
</linearGradient>
<linearGradient id="paint2_linear_0_105" x1="331" y1="196.108" x2="758.076" y2="200.853" gradientUnits="userSpaceOnUse">
<stop stop-color="#00CE2C"/>
<stop offset="0.492615" stop-color="#AEDF23"/>
<stop offset="1" stop-color="#A3DC00"/>
</linearGradient>
<linearGradient id="paint3_linear_0_105" x1="974.849" y1="69.3082" x2="974.849" y2="322.39" gradientUnits="userSpaceOnUse">
<stop stop-color="#2ADD50"/>
<stop offset="1" stop-color="#AFDD2A"/>
</linearGradient>
<linearGradient id="paint4_linear_0_105" x1="987.503" y1="132.579" x2="987.503" y2="259.12" gradientUnits="userSpaceOnUse">
<stop stop-color="#2ADD50"/>
<stop offset="1" stop-color="#AFDD2A"/>
</linearGradient>
</defs>
</svg>
